<?xml version="1.0" standalone="no"?>
<!DOCTYPE svg PUBLIC "-//W3C//DTD SVG 20010904//EN"
 "http://www.w3.org/TR/2001/REC-SVG-20010904/DTD/svg10.dtd">
<svg version="1.0" xmlns="http://www.w3.org/2000/svg"
 width="200.000000pt" height="130.000000pt" viewBox="0 0 200.000000 130.000000"
 preserveAspectRatio="xMidYMid meet">

<g transform="translate(0.000000,130.000000) scale(0.100000,-0.100000)"
fill="#000000" stroke="none">
<path d="M793 1088 c-36 -28 -53 -48 -53 -63 0 -18 -7 -24 -37 -30 -21 -3 -48
-13 -60 -21 -46 -29 -19 -102 58 -157 l39 -28 0 -90 c0 -50 3 -89 8 -87 4 2
29 19 54 38 36 27 48 42 49 65 l2 30 4 -28 c3 -18 21 -40 56 -67 l52 -39 6 52
5 52 5 -54 4 -53 53 42 c28 23 52 48 52 56 0 10 12 14 40 14 57 0 95 37 79 77
-13 35 -43 68 -86 94 l-33 21 0 109 c0 60 -3 109 -6 109 -3 0 -27 -19 -54 -41
-44 -37 -49 -46 -53 -88 l-3 -46 -2 46 c-2 47 -3 48 -99 122 -10 7 -13 -27
-13 -167 l0 -177 43 -19 c23 -10 35 -19 27 -19 -29 -2 -140 58 -185 100 -50
46 -59 83 -26 114 20 17 20 16 23 -41 3 -55 5 -60 46 -91 24 -18 48 -33 53
-33 5 0 9 73 9 170 0 94 -1 170 -2 169 -2 0 -27 -18 -55 -41z m240 -182 c96
-62 123 -110 85 -148 l-23 -23 -5 57 c-5 58 -4 57 -79 115 -9 7 -19 13 -23 13
-5 0 -8 -43 -8 -95 0 -52 -3 -95 -7 -95 -5 0 -7 47 -5 105 2 58 5 105 8 105 3
0 28 -15 57 -34z"/>
<path d="M254 552 c-65 -52 -53 -147 21 -178 46 -19 64 -18 103 6 43 26 33 43
-13 20 -64 -33 -125 1 -125 70 0 30 6 43 26 59 31 25 72 27 100 6 23 -18 34
-19 34 -4 0 38 -107 53 -146 21z"/>
<path d="M477 475 c-26 -53 -47 -99 -47 -101 0 -2 6 -4 13 -4 7 0 18 14 24 30
10 27 15 30 58 30 42 0 47 -2 56 -30 6 -16 17 -30 25 -30 14 0 -3 46 -58 153
l-24 49 -47 -97z m73 -7 c0 -5 -11 -8 -25 -8 -29 0 -29 0 -13 35 l12 26 13
-23 c7 -13 12 -26 13 -30z"/>
<path d="M793 490 l-41 -85 -38 78 c-21 42 -41 77 -44 77 -8 0 -31 -183 -24
-189 9 -9 24 23 25 54 0 17 4 41 8 54 5 20 10 15 36 -43 16 -36 32 -66 35 -66
3 0 21 30 39 68 19 37 35 63 37 57 1 -5 5 -36 9 -67 4 -32 11 -58 16 -58 12 0
11 38 -5 130 l-13 75 -40 -85z"/>
<path d="M900 470 l0 -100 60 0 c33 0 60 4 60 10 0 6 -22 10 -50 10 l-50 0 0
34 c0 34 1 35 47 38 67 4 70 28 3 28 -50 0 -51 1 -48 28 3 25 7 27 47 28 72 1
64 24 -8 24 l-61 0 0 -100z"/>
<path d="M1050 470 c0 -60 4 -100 10 -100 6 0 10 20 10 45 0 25 5 45 10 45 6
0 10 -3 10 -7 0 -15 68 -88 75 -81 4 4 -7 25 -25 48 -20 25 -27 40 -18 40 26
0 51 26 51 55 0 37 -26 55 -80 55 l-43 0 0 -100z m88 71 c18 -2 15 -48 -4 -55
-9 -3 -27 -6 -40 -6 -20 0 -24 5 -24 28 0 35 4 40 33 37 12 -1 28 -3 35 -4z"/>
<path d="M1239 541 c-55 -56 -26 -159 50 -176 42 -9 96 17 116 55 53 103 -84
202 -166 121z m125 -12 c20 -16 26 -29 26 -59 0 -51 -30 -80 -81 -80 -71 0
-105 85 -54 135 30 31 73 32 109 4z"/>
<path d="M1450 473 c0 -85 3 -103 15 -103 12 0 15 15 15 71 l0 70 61 -70 c34
-39 64 -71 65 -71 2 0 4 45 4 100 0 60 -4 100 -10 100 -6 0 -10 -31 -10 -72
l-1 -73 -69 75 -69 75 -1 -102z"/>
<path d="M220 286 c0 -32 3 -36 25 -36 47 0 44 61 -4 68 -18 3 -21 -1 -21 -32z
m45 -1 c0 -11 -8 -21 -17 -23 -14 -3 -18 3 -18 23 0 20 4 26 18 23 9 -2 17
-12 17 -23z"/>
<path d="M290 285 c0 -30 3 -35 23 -34 16 1 18 2 5 6 -10 2 -18 9 -18 14 0 5
8 9 18 9 15 1 15 2 -3 12 -19 11 -19 11 0 19 19 7 18 8 -2 8 -20 1 -23 -4 -23
-34z"/>
<path d="M341 318 c-2 -15 19 -58 28 -58 5 0 14 14 20 30 6 18 6 28 1 25 -6
-4 -10 -13 -10 -21 0 -21 -16 -17 -28 9 -6 12 -11 19 -11 15z"/>
<path d="M410 285 c0 -30 3 -35 23 -34 16 1 18 2 5 6 -10 2 -18 8 -18 13 0 5
8 11 18 13 16 4 16 5 0 6 -10 0 -18 5 -18 10 0 5 8 12 18 14 13 4 11 5 -5 6
-20 1 -23 -4 -23 -34z"/>
<path d="M461 288 c-1 -30 3 -38 17 -38 11 0 13 3 5 8 -6 4 -13 21 -16 37 -4
27 -4 27 -6 -7z"/>
<path d="M509 304 c-17 -21 0 -49 31 -49 31 0 48 28 31 49 -8 9 -21 16 -31 16
-10 0 -23 -7 -31 -16z m54 -6 c7 -21 -4 -38 -23 -38 -23 0 -32 13 -24 34 7 19
40 21 47 4z"/>
<path d="M591 283 c0 -21 3 -31 6 -23 3 8 12 19 19 23 21 12 17 37 -6 37 -17
0 -20 -6 -19 -37z m29 17 c0 -5 -4 -10 -10 -10 -5 0 -10 5 -10 10 0 6 5 10 10
10 6 0 10 -4 10 -10z"/>
<path d="M732 288 c2 -23 8 -33 21 -34 12 -1 13 -1 2 3 -21 6 -19 23 3 23 15
1 15 2 -3 12 -19 11 -19 11 0 19 18 7 18 8 -3 8 -20 1 -23 -3 -20 -31z"/>
<path d="M831 301 c-1 -23 -2 -23 -19 -8 -10 10 -21 17 -23 17 -10 0 -8 -49 2
-56 7 -4 9 1 4 15 -8 25 10 28 24 4 13 -24 23 -11 18 24 -3 24 -4 25 -6 4z"/>
<path d="M858 285 c2 -19 5 -35 7 -35 2 0 5 16 7 35 2 21 0 35 -7 35 -7 0 -9
-14 -7 -35z"/>
<path d="M924 306 c-12 -31 1 -51 34 -54 17 -2 32 1 32 5 0 5 -12 9 -27 8 -21
0 -28 5 -28 20 0 15 7 20 27 20 14 -1 24 3 22 7 -9 14 -54 9 -60 -6z"/>
<path d="M1004 306 c-12 -31 0 -51 31 -51 27 0 30 3 30 30 0 25 -4 30 -28 33
-17 2 -29 -2 -33 -12z m54 -19 c4 -20 -25 -34 -40 -19 -15 15 -1 44 19 40 10
-2 19 -11 21 -21z"/>
<path d="M1089 318 c-1 -2 -2 -18 -4 -37 -2 -20 0 -28 5 -20 7 10 12 10 27 -2
16 -12 17 -12 6 2 -9 11 -9 19 -2 26 14 14 3 33 -17 33 -8 0 -14 -1 -15 -2z
m31 -18 c0 -5 -4 -10 -10 -10 -5 0 -10 5 -10 10 0 6 5 10 10 10 6 0 10 -4 10
-10z"/>
<path d="M1141 283 c1 -21 3 -31 6 -22 2 10 13 19 25 22 25 7 19 31 -10 35
-19 3 -22 -1 -21 -35z m29 17 c0 -5 -4 -10 -10 -10 -5 0 -10 5 -10 10 0 6 5
10 10 10 6 0 10 -4 10 -10z"/>
<path d="M1201 302 c-14 -27 8 -55 40 -50 19 2 24 9 24 33 0 25 -4 31 -27 33
-18 2 -30 -3 -37 -16z m57 -15 c4 -20 -25 -34 -40 -19 -15 15 -1 44 19 40 10
-2 19 -11 21 -21z"/>
<path d="M1280 283 c0 -29 3 -34 10 -23 9 13 11 13 21 0 9 -13 10 -13 6 1 -3
9 -1 21 5 27 14 14 1 32 -23 32 -15 0 -19 -7 -19 -37z m35 17 c-3 -5 -10 -10
-16 -10 -5 0 -9 5 -9 10 0 6 7 10 16 10 8 0 12 -4 9 -10z"/>
<path d="M1360 312 c0 -4 6 -14 13 -21 10 -11 9 -13 -5 -8 -10 3 -19 0 -22 -9
-9 -24 -7 -31 4 -14 8 13 13 13 31 2 20 -13 21 -12 14 5 -4 10 -10 26 -12 36
-5 17 -23 24 -23 9z"/>
<path d="M1418 285 c2 -19 5 -35 7 -35 2 0 5 16 7 35 2 21 0 35 -7 35 -7 0 -9
-14 -7 -35z"/>
<path d="M1453 285 c0 -22 2 -30 4 -17 2 12 2 30 0 40 -3 9 -5 -1 -4 -23z"/>
<path d="M1475 300 c-14 -44 44 -69 65 -29 9 15 8 24 -1 35 -18 21 -57 18 -64
-6z m58 -2 c7 -21 -4 -38 -23 -38 -23 0 -34 16 -26 35 7 18 43 20 49 3z"/>
<path d="M1560 312 c0 -13 37 -51 50 -52 3 0 7 11 8 25 1 14 -3 25 -8 25 -5 0
-7 -7 -4 -15 9 -22 -5 -18 -27 8 -11 13 -18 17 -19 9z"/>
<path d="M650 305 c0 -5 9 -21 19 -34 17 -22 18 -22 26 -5 7 18 7 18 15 -1 l9
-20 0 20 c0 11 -3 26 -8 34 -7 11 -10 9 -16 -9 l-7 -23 -19 24 c-10 13 -19 20
-19 14z"/>
<path d="M641 264 c0 -11 3 -14 6 -6 3 7 2 16 -1 19 -3 4 -6 -2 -5 -13z"/>
<path d="M1561 264 c0 -11 3 -14 6 -6 3 7 2 16 -1 19 -3 4 -6 -2 -5 -13z"/>
</g>
</svg>
