<?xml version="1.0" standalone="no"?>
<!DOCTYPE svg PUBLIC "-//W3C//DTD SVG 20010904//EN"
 "http://www.w3.org/TR/2001/REC-SVG-20010904/DTD/svg10.dtd">
<svg version="1.0" xmlns="http://www.w3.org/2000/svg"
 width="256.000000pt" height="256.000000pt" viewBox="0 0 256.000000 256.000000"
 preserveAspectRatio="xMidYMid meet">

<g transform="translate(0.000000,256.000000) scale(0.100000,-0.100000)"
fill="#000000" stroke="none">
<path d="M0 1280 l0 -1280 1280 0 1280 0 0 1280 0 1280 -1280 0 -1280 0 0
-1280z m1580 673 c0 -108 18 -163 68 -216 50 -53 98 -70 205 -75 l97 -4 0
-499 c0 -427 -2 -505 -15 -536 -32 -77 -92 -113 -185 -113 l-61 0 27 34 c19
24 38 36 65 40 25 4 46 16 63 37 l26 31 0 439 0 439 -535 0 -535 0 0 -425 c0
-474 1 -479 63 -508 28 -14 66 -17 195 -17 l160 0 26 -35 27 -35 -201 0 c-219
0 -244 5 -292 56 -15 16 -32 42 -37 57 -7 19 -11 237 -11 658 0 608 1 631 20
669 22 44 60 74 110 88 20 6 184 11 378 11 l342 1 0 -97z m348 -215 c12 -17 9
-18 -65 -18 -163 1 -223 64 -223 237 l0 88 138 -144 c75 -79 143 -152 150
-163z m-328 -938 l0 -159 62 -3 62 -3 -119 -135 c-65 -74 -122 -135 -125 -135
-4 0 -60 61 -124 135 l-118 135 61 3 61 3 0 159 0 160 120 0 120 0 0 -160z"/>
<path d="M880 1781 l0 -111 49 0 c98 0 141 36 141 119 0 28 -7 48 -24 68 -21
24 -32 28 -95 31 l-71 4 0 -111z m124 43 c37 -36 7 -104 -46 -104 -28 0 -28 1
-28 60 0 60 0 60 29 60 16 0 37 -7 45 -16z"/>
<path d="M1137 1879 c-43 -25 -60 -106 -33 -158 30 -58 119 -69 167 -22 25 25
29 37 29 81 0 44 -4 56 -29 81 -24 23 -38 29 -73 29 -24 0 -51 -5 -61 -11z
m97 -51 c31 -44 6 -118 -39 -118 -24 0 -55 38 -55 68 0 38 26 72 55 72 13 0
31 -10 39 -22z"/>
<path d="M1357 1866 c-75 -69 -26 -196 74 -196 29 0 47 7 64 25 33 33 33 65 0
65 -16 0 -25 -6 -25 -15 0 -24 -46 -41 -66 -24 -26 21 -34 55 -23 89 15 41 55
52 80 22 22 -28 59 -29 59 -3 0 57 -114 82 -163 37z"/>
</g>
</svg>
