<?xml version="1.0" standalone="no"?>
<!DOCTYPE svg PUBLIC "-//W3C//DTD SVG 20010904//EN"
 "http://www.w3.org/TR/2001/REC-SVG-20010904/DTD/svg10.dtd">
<svg version="1.0" xmlns="http://www.w3.org/2000/svg"
 width="613.000000pt" height="517.000000pt" viewBox="0 0 613.000000 517.000000"
 preserveAspectRatio="xMidYMid meet">

<g transform="translate(0.000000,517.000000) scale(0.100000,-0.100000)"
fill="#000000" stroke="none">
<path d="M2562 5046 c-529 -100 -923 -528 -972 -1056 -49 -531 259 -1026 762
-1220 74 -29 266 -70 335 -71 56 -2 56 -2 -22 -10 -262 -27 -398 -55 -555
-112 -298 -109 -533 -258 -751 -476 -221 -222 -358 -437 -466 -731 -66 -181
-104 -368 -117 -582 l-5 -88 1155 0 1156 0 -31 38 c-124 148 -182 242 -241
386 -70 172 -100 321 -100 504 0 257 51 454 173 669 57 101 190 269 253 321
l36 30 -64 11 c-35 6 -124 17 -198 23 l-135 13 95 7 c270 20 541 147 733 342
397 403 460 1010 153 1481 -162 248 -409 424 -705 502 -119 32 -370 41 -489
19z"/>
<path d="M4097 2959 c-172 -17 -402 -95 -546 -187 -361 -228 -589 -592 -631
-1007 -32 -309 47 -615 227 -883 239 -355 664 -582 1091 -582 312 0 613 108
862 309 129 104 259 269 344 438 132 265 169 611 95 908 -74 298 -246 558
-489 740 -204 151 -435 242 -675 265 -122 11 -151 11 -278 -1z m536 -1516
c-351 -348 -640 -633 -643 -633 -3 0 -176 171 -385 380 l-380 380 160 160 160
160 222 -222 223 -223 477 477 478 478 163 -163 162 -162 -637 -632z"/>
</g>
</svg>
