<svg height="511pt" viewBox="-96 0 511 511.99962" width="511pt" xmlns="http://www.w3.org/2000/svg"><path d="m248.4375 345.277344c8.417969-8.417969 15.472656-17.832032 21.074219-27.96875 2.269531.65625 4.660156 1.007812 7.167969 1.007812 23.121093 0 43.695312-28.96875 43.695312-51.804687 0-12.652344-4.488281-23.46875-11.988281-30.875v-60.855469c0-4.203125-3.40625-7.609375-7.613281-7.609375-4.203126 0-7.609376 3.40625-7.609376 7.609375v51.894531c-2.625-.773437-5.390624-1.273437-8.269531-1.472656v-50.023437c0-4.203126-3.40625-7.613282-7.613281-7.613282-4.203125 0-7.613281 3.410156-7.613281 7.613282v8.234374c-29.71875-1.957031-137.121094-13.085937-192.160157-73.023437-.628906-.679687-1.378906-1.246094-2.207031-1.660156-3.117187-1.558594-6.894531-.800781-9.171875 1.839843-19.4375 22.546876-30.144531 51.386719-30.144531 81.207032v33.421875c-2.214844.15625-4.363281.484375-6.429687.984375v-125.019532c0-8.152343 3.761718-15.597656 10.320312-20.4375 6.554688-4.839843 14.785156-6.234374 22.570312-3.832031 4 1.234375 8.25-.992187 9.503907-4.988281 6.796875-21.601562 21.789062-38.882812 42.210937-48.664062s43.285156-10.628907 64.375-2.378907l51.238282 20.035157c18.757812 7.332031 34.671874 20 46.03125 36.636718 11.355468 16.632813 17.359374 36.070313 17.359374 56.210938v17.691406c0 4.203125 3.40625 7.613281 7.609376 7.613281 4.207031 0 7.613281-3.410156 7.613281-7.613281v-17.691406c0-23.21875-6.917969-45.621094-20.007813-64.796875-13.089844-19.171875-31.441406-33.777344-53.0625-42.230469l-51.238281-20.035156c-25.058594-9.800782-52.226563-8.796875-76.496094 2.828125-22.171875 10.617187-38.957031 28.679687-47.847656 51.292969-10.191406-1.246094-20.417969 1.414062-28.902344 7.671874-10.488281 7.738282-16.503906 19.652344-16.503906 32.6875v132.777344c-8.597656 7.398438-13.828125 18.917969-13.828125 32.570313 0 22.835937 20.574219 51.804687 43.695312 51.804687 2.507813 0 4.898438-.347656 7.167969-1.007812 5.601563 10.140625 12.65625 19.558594 21.074219 27.972656 2.972656 2.972656 7.792969 2.972656 10.761719 0 2.976562-2.972656 2.976562-7.792969 0-10.761719-20.628907-20.632812-31.992188-48.058593-31.992188-77.234375v-20.15625h5.710938c3.65625 22.714844 23.390625 40.125 47.121093 40.125 24.890626 0 45.378907-19.152344 47.535157-43.492187 5.539062-2.9375 12.191406-2.9375 17.730469 0 2.15625 24.339843 22.644531 43.488281 47.535156 43.488281 23.726562 0 43.460937-17.40625 47.117187-40.121094h5.710938v20.15625c0 29.167969-11.363281 56.59375-31.996094 77.226563-20.625 20.632812-48.054687 31.996093-77.238281 31.996093-21.886719 0-43.003906-6.449218-61.0625-18.648437-3.484375-2.355469-8.214844-1.4375-10.566406 2.042969-2.355469 3.484375-1.441407 8.21875 2.042968 10.570312 8.914063 6.023438 18.484375 10.808594 28.488282 14.308594v28.050781l-76.738282 44.488281c-1.753906 1.019532-3.03125 2.699219-3.546875 4.664063l-13.195312 50.476563c-1.0625 4.066406 1.375 8.226562 5.441406 9.289062.644531.167969 1.292969.25 1.929687.25 3.378907 0 6.464844-2.269531 7.359376-5.6875l12.390624-47.410156 44.257813-25.65625 8.707031 43.472656c.511719 2.550781 2.289063 4.660156 4.710938 5.601562 2.425781.941407 5.160156.578126 7.257812-.960937l19.8125-14.539063 16.421875 24.183594c1.414063 2.085938 3.773438 3.335938 6.296875 3.335938 2.523438 0 4.882813-1.25 6.296875-3.335938l16.417969-24.171875 19.796875 14.527344c1.324219.972656 2.90625 1.476563 4.503906 1.476563.925781 0 1.859375-.167969 2.75-.515626 2.425781-.941406 4.203125-3.054687 4.710938-5.601562l8.710937-43.476562 44.257813 25.660156 12.390625 47.40625c.894531 3.421875 3.980468 5.691406 7.359375 5.691406.640625 0 1.285156-.082031 1.929687-.25 4.070313-1.066406 6.503906-5.222656 5.441406-9.292969l-13.195312-50.476562c-.515625-1.960938-1.789062-3.640625-3.546875-4.660157l-76.714844-44.476562v-28.039062c17.449219-6.085938 33.441407-16.070313 46.886719-29.527344zm56.710938-78.765625c0 15.109375-14.722657 36.582031-28.46875 36.582031-.15625 0-.304688-.011719-.457032-.015625 2.203125-5.574219 4-11.308594 5.371094-17.171875 1.703125-6.097656 6.226562-15.820312 11.132812-15.820312 4.203126 0 7.613282-3.410157 7.613282-7.613282s-3.410156-7.613281-7.613282-7.613281c-2.894531 0-5.492187.605469-7.832031 1.625v-15.980469c10.238281 1.304688 20.253907 9.566406 20.253907 26.007813zm-260.953126 36.582031c-13.746093 0-28.46875-21.472656-28.46875-36.582031 0-16.445313 10.019532-24.703125 20.257813-26.007813v15.984375c-2.339844-1.023437-4.941406-1.628906-7.835937-1.628906-4.203126 0-7.613282 3.410156-7.613282 7.613281s3.410156 7.613282 7.613282 7.613282c4.921874 0 9.457031 9.78125 11.148437 15.875 1.371094 5.84375 3.160156 11.5625 5.355469 17.117187-.152344.003906-.300782.015625-.457032.015625zm59.84375-41.066406c-17.925781 0-32.507812-14.585938-32.507812-32.511719 0-11.742187 5.316406-18.539063 32.507812-18.539063 27.191407 0 32.507813 6.796876 32.507813 18.539063 0 17.925781-14.582031 32.511719-32.507813 32.511719zm112.800782 0c-17.925782 0-32.507813-14.585938-32.507813-32.511719 0-11.742187 5.320313-18.539063 32.507813-18.539063s32.507812 6.796876 32.507812 18.539063c0 17.925781-14.582031 32.511719-32.507812 32.511719zm47.046875-40.121094c-4.867188-26.132812-35.058594-26.15625-47.046875-26.15625-11.347656 0-39.027344.015625-46.070313 22.195312-6.71875-2.132812-13.941406-2.132812-20.660156 0-7.042969-22.183593-34.71875-22.195312-46.070313-22.195312-11.984374 0-42.179687.023438-47.046874 26.15625h-5.78125v-30.128906c0-23.371094 7.492187-46.058594 21.246093-64.738282 28.796875 28.09375 70.964844 48.65625 125.511719 61.175782 31.957031 7.335937 59.117188 9.71875 71.699219 10.476562v23.214844zm-152.738281 203.273438 10.023437-5.8125c3.402344 10.980468 11.292969 20.007812 21.519531 24.921874l-24.164062 17.734376zm49.296874 47.996093-10.4375-15.367187 10.425782-7.652344 10.441406 7.660156zm41.894532-11.152343-24.15625-17.726563c10.230468-4.914063 18.125-13.9375 21.53125-24.917969l10.007812 5.800782zm-16.011719-55.273438c-.015625.261719-.019531.527344-.007813.789062-.175781 14.125-11.710937 25.5625-25.886718 25.5625-14.265625 0-25.871094-11.613281-25.871094-25.882812v-28.199219c8.441406 1.785157 17.101562 2.714844 25.871094 2.714844 8.808594 0 17.472656-.917969 25.894531-2.691406zm0 0"/><path d="m86.851562 317.390625c0 4.203125 3.410157 7.613281 7.613282 7.613281h36.539062c11.988282 0 22.660156-5.730468 29.4375-14.585937 6.773438 8.855469 17.445313 14.585937 29.433594 14.585937h36.539062c4.207032 0 7.613282-3.410156 7.613282-7.613281 0-20.429687-16.621094-37.046875-37.046875-37.046875h-18.382813c2.339844-2.988281 2.140625-7.320312-.609375-10.070312-2.972656-2.972657-7.792969-2.972657-10.765625 0-1.8125 1.8125-4.222656 2.808593-6.785156 2.808593s-4.972656-.996093-6.785156-2.808593c-2.972656-2.972657-7.792969-2.972657-10.765625 0-2.75 2.75-2.949219 7.082031-.609375 10.070312h-18.378906c-20.425782 0-37.046876 16.617188-37.046876 37.046875zm44.152344-7.613281h-27.554687c3.09375-8.289063 11.09375-14.210938 20.449219-14.210938h27.558593c-3.097656 8.292969-11.097656 14.210938-20.453125 14.210938zm86.429688 0h-27.558594c-9.355469 0-17.355469-5.917969-20.453125-14.210938h27.558594c9.355469 0 17.355469 5.921875 20.453125 14.210938zm0 0"/></svg>