<svg xmlns="http://www.w3.org/2000/svg" height="511pt" version="1.1" viewBox="0 -22 511.99882 511" width="511pt">
<g id="surface1">
<path d="M 370.335938 454.40625 C 391.160156 458.089844 412.394531 460.621094 433.453125 461.925781 C 436.019531 462.085938 438.273438 462.160156 440.34375 462.160156 C 454.871094 462.160156 460.46875 458.199219 461.730469 447.019531 C 462.675781 438.597656 463.246094 429.628906 463.703125 422.433594 L 463.890625 419.601562 C 464.09375 416.460938 464.304688 413.273438 464.550781 410.125 L 464.558594 409.996094 C 464.75 407.46875 464.8125 405.226562 463.769531 403.382812 C 461.980469 400.234375 457.832031 399.519531 453.617188 399.21875 L 376.9375 393.699219 C 376.140625 393.644531 375.089844 393.582031 374.039062 393.582031 C 371.929688 393.582031 368.898438 393.816406 366.921875 395.828125 C 365.042969 397.738281 364.664062 400.675781 364.417969 403.777344 L 361.449219 441.492188 C 361.164062 445.179688 361.074219 449.3125 363.589844 451.765625 C 365.257812 453.402344 367.632812 453.929688 370.335938 454.40625 Z M 429.199219 416.3125 C 430.125 411.152344 433.464844 407.207031 437.707031 406.261719 C 438.339844 406.117188 438.980469 406.050781 439.613281 406.050781 C 442.851562 406.050781 446.046875 407.9375 448.382812 411.226562 C 451.210938 415.214844 451.421875 420.933594 448.894531 425.136719 C 447.300781 427.792969 444.800781 429.675781 442.046875 430.304688 C 441.367188 430.453125 440.664062 430.53125 439.96875 430.53125 C 436.984375 430.53125 434 429.171875 431.988281 426.886719 C 429.550781 424.132812 428.511719 420.179688 429.199219 416.3125 Z M 429.199219 416.3125 " style=" stroke:none;fill-rule:nonzero;fill:rgb(15.686275%,56.078431%,78.823529%);fill-opacity:1;" />
<path d="M 72.28125 461.652344 C 93.441406 460.996094 114.742188 459.132812 135.609375 456.109375 C 137.835938 455.777344 140.609375 455.367188 142.421875 453.683594 C 145.042969 451.285156 145.066406 447.148438 144.882812 443.472656 L 143.105469 405.679688 C 142.957031 402.589844 142.671875 399.648438 140.863281 397.679688 C 138.84375 395.464844 135.53125 395.179688 132.871094 395.179688 C 132.214844 395.179688 131.550781 395.199219 130.894531 395.226562 L 54.097656 398.335938 C 49.871094 398.503906 45.699219 399.089844 43.808594 402.191406 C 42.707031 404.015625 42.710938 406.300781 42.820312 408.890625 C 43.015625 413.085938 43.160156 417.457031 43.28125 421.230469 L 43.296875 421.710938 C 43.5625 429.648438 43.835938 437.855469 44.488281 445.855469 C 45.5625 459.128906 53.78125 461.726562 67.613281 461.726562 C 69.011719 461.726562 70.535156 461.703125 72.28125 461.652344 Z M 59.175781 430.035156 C 56.742188 427.28125 55.699219 423.328125 56.390625 419.464844 C 57.316406 414.308594 60.660156 410.367188 64.914062 409.417969 C 65.546875 409.277344 66.191406 409.203125 66.828125 409.203125 C 70.058594 409.203125 73.246094 411.089844 75.570312 414.378906 C 78.398438 418.371094 78.613281 424.089844 76.082031 428.292969 C 74.496094 430.941406 72 432.824219 69.214844 433.460938 C 68.582031 433.605469 67.890625 433.683594 67.15625 433.683594 C 64.175781 433.683594 61.191406 432.320312 59.175781 430.035156 Z M 59.175781 430.035156 " style=" stroke:none;fill-rule:nonzero;fill:rgb(15.686275%,56.078431%,78.823529%);fill-opacity:1;" />
<path d="M 227.882812 464.429688 C 228.964844 464.429688 230.058594 464.421875 231.15625 464.410156 C 260.765625 464.148438 290.722656 460.878906 320.195312 454.6875 C 324.050781 453.875 327.453125 452.886719 330.011719 448.992188 C 334.339844 442.425781 334.359375 429.773438 334.367188 422.980469 L 334.585938 328.769531 C 334.609375 320.863281 334.417969 313.332031 331.898438 308.054688 C 329.015625 301.988281 324.148438 301.152344 319.320312 301.152344 C 318.925781 301.152344 318.511719 301.160156 318.050781 301.171875 L 210.269531 303.984375 C 204.320312 304.140625 198.410156 305.363281 195.460938 313.160156 C 194.601562 315.445312 194.039062 318.285156 193.746094 321.855469 C 193.519531 324.773438 193.507812 327.71875 193.5 330.359375 C 193.460938 339.566406 193.367188 348.976562 193.277344 358.074219 L 193.246094 361.328125 C 193.035156 381.4375 192.820312 402.234375 193.167969 422.574219 C 193.820312 461.230469 209.960938 464.429688 227.882812 464.429688 Z M 208.949219 331.820312 C 209.875 326.667969 213.214844 322.726562 217.464844 321.78125 C 218.097656 321.636719 218.746094 321.566406 219.382812 321.566406 C 222.65625 321.566406 225.765625 323.402344 228.128906 326.734375 C 230.957031 330.734375 231.167969 336.457031 228.644531 340.652344 C 227.058594 343.304688 224.558594 345.1875 221.765625 345.820312 C 221.128906 345.96875 220.457031 346.042969 219.71875 346.042969 C 216.726562 346.042969 213.746094 344.679688 211.738281 342.394531 C 209.300781 339.640625 208.261719 335.6875 208.949219 331.820312 Z M 208.949219 371.421875 C 209.875 366.269531 213.214844 362.324219 217.460938 361.378906 C 218.097656 361.238281 218.742188 361.164062 219.382812 361.164062 C 222.65625 361.164062 225.765625 363.003906 228.128906 366.335938 C 230.957031 370.335938 231.167969 376.058594 228.644531 380.253906 C 227.058594 382.902344 224.558594 384.785156 221.757812 385.421875 C 221.113281 385.574219 220.421875 385.652344 219.71875 385.652344 C 216.742188 385.652344 213.757812 384.285156 211.738281 381.996094 C 209.300781 379.242188 208.261719 375.285156 208.949219 371.421875 Z M 208.949219 371.421875 " style=" stroke:none;fill-rule:nonzero;fill:rgb(35.686275%,81.568627%,98.823529%);fill-opacity:1;" />
<path d="M 497.042969 258.953125 L 495.710938 258.753906 L 494.675781 259.617188 C 492.308594 261.589844 489.835938 263.730469 487.871094 266.292969 C 485.398438 269.539062 484.089844 273.160156 484.191406 276.496094 C 484.269531 279.03125 485.25 281.542969 486.878906 283.390625 L 489.617188 286.488281 L 491.714844 282.921875 C 495.40625 276.632812 499.835938 270.929688 504.878906 265.972656 L 507.867188 263.035156 L 504.125 261.152344 C 501.996094 260.082031 499.613281 259.34375 497.042969 258.953125 Z M 497.042969 258.953125 " style=" stroke:none;fill-rule:nonzero;fill:rgb(100%,100%,100%);fill-opacity:1;" />
<path d="M 377.507812 369.4375 L 374.597656 369.136719 L 371.597656 392.441406 L 374.925781 392.519531 C 375.523438 392.535156 376.082031 392.574219 376.585938 392.605469 L 453.695312 398.152344 C 454.519531 398.214844 455.539062 398.285156 456.65625 398.449219 L 459.617188 398.890625 L 463.113281 375.6875 L 450.558594 374.929688 C 426.644531 373.472656 401.917969 371.96875 377.507812 369.4375 Z M 377.507812 369.4375 " style=" stroke:none;fill-rule:nonzero;fill:rgb(100%,100%,100%);fill-opacity:1;" />
<path d="M 210.246094 302.910156 L 318.019531 300.101562 C 318.484375 300.089844 319.007812 300.078125 319.578125 300.078125 C 320.605469 300.078125 321.515625 300.121094 322.351562 300.214844 L 325.894531 300.605469 L 323.8125 266.992188 L 320.882812 267.105469 C 301.671875 267.84375 280.328125 268.1875 253.714844 268.1875 C 241.40625 268.1875 229.03125 268.121094 217.0625 268.054688 L 215.675781 268.046875 C 211.210938 268.019531 206.734375 267.988281 202.257812 267.972656 L 198.988281 267.960938 L 201.996094 304.035156 L 205.296875 303.375 C 207.15625 303.003906 208.902344 302.949219 210.246094 302.910156 Z M 210.246094 302.910156 " style=" stroke:none;fill-rule:nonzero;fill:rgb(100%,100%,100%);fill-opacity:1;" />
<path d="M 170.53125 141.816406 L 173.433594 137.453125 C 177.105469 131.941406 176.542969 124.691406 174.949219 120.160156 C 172.515625 113.230469 167.152344 107.433594 162.839844 102.773438 L 161.761719 101.609375 L 160.195312 101.84375 C 156.640625 102.375 153.351562 103.40625 150.417969 104.910156 L 146.910156 106.710938 L 149.582031 109.613281 C 157.027344 117.695312 163.304688 126.941406 168.242188 137.101562 Z M 170.53125 141.816406 " style=" stroke:none;fill-rule:nonzero;fill:rgb(100%,100%,100%);fill-opacity:1;" />
<path d="M 136.285156 394.101562 L 134.007812 370.75 L 131.09375 370.960938 C 106.746094 372.710938 82.007812 373.441406 58.085938 374.148438 L 45.339844 374.519531 L 48.113281 397.8125 L 51.078125 397.472656 C 52.199219 397.34375 53.242188 397.296875 54.050781 397.269531 L 130.878906 394.160156 C 131.488281 394.132812 132.199219 394.101562 132.980469 394.101562 Z M 136.285156 394.101562 " style=" stroke:none;fill-rule:nonzero;fill:rgb(100%,100%,100%);fill-opacity:1;" />
<path d="M 17.417969 256.992188 L 16.671875 256.632812 L 15.851562 256.703125 C 13.007812 256.949219 10.347656 257.636719 7.941406 258.75 L 4.128906 260.511719 L 7.03125 263.546875 C 11.015625 267.714844 14.597656 272.394531 17.675781 277.449219 L 20.046875 281.355469 L 22.6875 277.625 C 24.929688 274.457031 25.796875 270.351562 25.015625 266.644531 C 24.152344 262.542969 21.238281 258.847656 17.417969 256.992188 Z M 17.417969 256.992188 " style=" stroke:none;fill-rule:nonzero;fill:rgb(100%,100%,100%);fill-opacity:1;" />
<path d="M 478.695312 262.570312 C 474.90625 264.785156 471.46875 267.835938 468.480469 271.636719 L 468.308594 271.855469 L 468.179688 272.097656 C 468.140625 272.175781 468.089844 272.238281 468.023438 272.296875 L 467.800781 272.5 L 467.625 272.738281 C 464.554688 276.886719 462.015625 281.820312 460.0625 287.425781 C 459.925781 287.835938 459.78125 288.253906 459.625 288.699219 C 458.5625 291.84375 457.363281 295.40625 454.804688 297.890625 C 452.898438 299.746094 450.355469 300.859375 448.097656 301.847656 C 447.347656 302.183594 446.597656 302.515625 445.871094 302.871094 C 435.722656 307.785156 428.617188 318.226562 427.765625 329.484375 C 427.746094 329.757812 427.515625 329.980469 427.210938 329.980469 C 427.210938 329.980469 427.210938 329.980469 427.207031 329.980469 C 426.90625 329.957031 426.679688 329.695312 426.699219 329.40625 C 427.570312 317.773438 434.910156 306.984375 445.402344 301.90625 C 446.140625 301.546875 446.898438 301.207031 447.683594 300.867188 C 449.941406 299.878906 452.273438 298.851562 454.058594 297.121094 C 456.425781 294.816406 457.539062 291.53125 458.625 288.335938 C 458.765625 287.910156 458.90625 287.488281 459.070312 287.035156 C 461.09375 281.226562 463.753906 276.109375 466.976562 271.824219 L 467.277344 271.421875 L 467.429688 270.941406 C 472.917969 253.9375 476.332031 236.300781 477.578125 218.515625 C 477.851562 214.550781 477.996094 210.695312 476.847656 207.054688 C 475.585938 203.070312 472.75 200.097656 469.449219 199.296875 C 468.816406 199.140625 468.160156 199.0625 467.496094 199.0625 C 463.539062 199.0625 460.058594 201.808594 458.28125 204.164062 C 455.585938 207.734375 454.410156 212.136719 453.277344 216.398438 L 437.28125 276.433594 L 436.921875 276.417969 L 436.683594 274.773438 C 436.664062 274.644531 436.664062 274.59375 436.667969 274.582031 C 440.101562 250.609375 443.648438 225.824219 442.007812 201.246094 C 441.800781 198.039062 441.453125 194.355469 439.957031 191.214844 C 438.34375 187.875 435.480469 185.617188 432.492188 185.324219 C 432.261719 185.300781 432.027344 185.292969 431.792969 185.292969 C 429.027344 185.292969 426.160156 186.859375 424.117188 189.488281 C 422.019531 192.1875 420.9375 195.652344 420.085938 198.695312 C 413.308594 223.058594 413.535156 248.976562 413.734375 271.820312 L 413.746094 273.488281 C 413.746094 273.53125 413.734375 273.589844 413.710938 273.660156 L 413.320312 274.867188 L 412.746094 273.742188 C 412.714844 273.683594 412.675781 273.589844 412.675781 273.539062 L 412.664062 271.867188 C 412.433594 249.410156 410.5625 226.769531 407.097656 204.570312 C 406.371094 199.878906 405.589844 195.703125 403.417969 192.097656 C 401.6875 189.214844 398.101562 185.847656 393.675781 185.847656 C 393.476562 185.847656 393.277344 185.851562 393.0625 185.867188 C 388.0625 186.242188 385.121094 190.667969 384.335938 192.019531 C 382.429688 195.324219 381.691406 199.054688 381.046875 202.902344 C 377.222656 225.710938 379.835938 248.804688 382.539062 266.375 L 382.558594 266.511719 L 382.59375 266.644531 C 383.515625 270.351562 384.078125 273.789062 384.3125 277.136719 C 384.3125 277.183594 384.304688 277.226562 384.296875 277.273438 L 384.140625 278.503906 L 383.359375 277.488281 C 383.316406 277.433594 383.265625 277.351562 383.25 277.265625 C 382.683594 274.023438 382.121094 270.636719 381.539062 266.914062 L 381.519531 266.777344 L 381.484375 266.644531 C 379.359375 258.25 375.710938 249.988281 372.183594 241.992188 L 370.726562 238.703125 C 369.144531 235.0625 365.710938 228.953125 360.492188 228.953125 C 360.226562 228.953125 359.960938 228.96875 359.695312 229.003906 C 357.113281 229.324219 354.691406 231.332031 353.375 234.238281 C 352.148438 236.9375 351.902344 240.027344 351.757812 242.960938 C 350.699219 264.257812 353.945312 286.140625 361.140625 306.242188 C 363 311.429688 365.179688 316.714844 367.101562 321.375 C 372.957031 335.570312 379.011719 350.25 378.925781 365.773438 L 378.910156 368.507812 L 381.628906 368.773438 C 405.117188 371.09375 429.292969 372.5625 450.609375 373.851562 C 451.988281 373.945312 453.355469 374.023438 454.730469 374.105469 L 455.679688 374.128906 L 456.457031 373.679688 L 456.496094 373.644531 C 464.613281 370.308594 471.429688 363.847656 475.195312 355.917969 C 479.320312 347.222656 479.710938 337.726562 480.121094 327.613281 C 480.289062 323.472656 480.480469 318.78125 481.015625 314.34375 C 481.617188 309.339844 482.746094 304.277344 484.359375 299.308594 L 484.957031 297.472656 L 485.652344 295.617188 C 486.832031 292.496094 488.210938 289.417969 489.753906 286.472656 L 490.855469 284.371094 L 489.0625 282.816406 C 487.308594 281.292969 486.21875 278.90625 486.148438 276.429688 C 486.035156 272.75 487.871094 269.53125 489.433594 267.476562 C 490.292969 266.34375 491.320312 265.234375 492.660156 263.980469 L 499.136719 257.914062 L 490.308594 258.804688 C 486.210938 259.222656 482.195312 260.523438 478.695312 262.570312 Z M 478.695312 262.570312 " style=" stroke:none;fill-rule:nonzero;fill:rgb(100%,82.352941%,73.333333%);fill-opacity:1;" />
<path d="M 348.457031 180.609375 C 360.394531 153.160156 366.972656 122.828125 367.480469 92.886719 C 367.542969 88.75 367.480469 84.386719 366.007812 80.476562 C 364.402344 76.199219 361.136719 73.113281 357.496094 72.425781 C 356.914062 72.3125 356.324219 72.257812 355.734375 72.257812 C 348.667969 72.257812 343.429688 80.273438 340.933594 85.0625 C 340.28125 86.324219 339.621094 87.585938 338.953125 88.859375 L 338.660156 89.421875 C 332.949219 100.320312 327.042969 111.589844 323.265625 123.246094 L 323.21875 123.378906 L 323.191406 123.515625 C 322.121094 128.273438 320.988281 133.109375 319.800781 137.964844 L 319.164062 139.296875 L 318.582031 139.109375 L 318.796875 137.554688 C 319.445312 132.878906 320.542969 128.171875 322.152344 123.171875 L 322.195312 123.039062 L 322.226562 122.902344 C 327.648438 98.53125 333.460938 66.421875 330.230469 34.132812 C 329.703125 28.875 328.992188 23.339844 326.617188 18.535156 C 324.601562 14.441406 320.445312 9.785156 314.824219 8.988281 C 314.273438 8.914062 313.707031 8.875 313.148438 8.875 C 307.203125 8.875 302.113281 13.160156 299.5625 16.828125 C 296.175781 21.699219 294.679688 27.496094 293.210938 34.023438 C 286.316406 64.703125 281.597656 96.203125 279.1875 127.644531 L 279.011719 129.992188 C 279 130.054688 278.964844 130.121094 278.9375 130.171875 L 278.328125 131.167969 L 277.976562 130.066406 C 277.945312 129.964844 277.945312 129.921875 277.945312 129.921875 L 278.117188 127.566406 C 280.515625 95.566406 283.234375 59.300781 276.023438 24.601562 C 275.128906 20.273438 273.941406 15.316406 271.21875 11.289062 C 268.433594 7.140625 264.15625 4.566406 260.0625 4.566406 C 259.929688 4.566406 259.796875 4.566406 259.683594 4.574219 C 255.390625 4.71875 251.113281 7.660156 248.523438 12.25 C 246.144531 16.464844 245.332031 21.421875 244.703125 26.132812 C 240.125 60.34375 242.78125 95.308594 245.355469 129.179688 L 245.457031 130.488281 C 245.199219 130.539062 244.945312 130.59375 244.695312 130.648438 L 244.28125 129.324219 L 227.960938 46.285156 C 226.765625 40.1875 225.53125 33.886719 222.0625 28.625 C 219.484375 24.699219 214.625 20.511719 208.726562 20.511719 C 208.042969 20.511719 207.355469 20.570312 206.6875 20.6875 C 201.917969 21.527344 197.617188 25.476562 195.464844 30.988281 C 193.480469 36.050781 193.335938 41.683594 193.359375 47.023438 C 193.449219 72.15625 196.605469 97.230469 202.738281 121.554688 L 202.863281 122.046875 L 203.140625 122.46875 C 207.320312 128.84375 210.601562 136.300781 212.890625 144.613281 L 213.398438 146.503906 C 214.621094 151.085938 215.882812 155.820312 219.003906 159.285156 C 221.332031 161.859375 224.539062 163.539062 227.636719 165.160156 L 228.109375 165.40625 C 228.984375 165.863281 229.859375 166.320312 230.726562 166.820312 C 244.859375 174.859375 254.078125 190.558594 254.207031 206.824219 C 254.210938 207.117188 253.972656 207.359375 253.679688 207.363281 C 253.390625 207.363281 253.152344 207.128906 253.148438 206.824219 C 253.007812 190.941406 244.003906 175.601562 230.199219 167.742188 C 229.199219 167.175781 228.175781 166.636719 227.144531 166.101562 C 223.964844 164.445312 220.679688 162.738281 218.210938 159.996094 C 214.910156 156.328125 213.558594 151.257812 212.363281 146.757812 L 211.863281 144.90625 C 209.648438 136.871094 206.523438 129.691406 202.582031 123.566406 L 202.375 123.25 L 202.097656 122.988281 C 202.046875 122.945312 202.003906 122.875 201.96875 122.78125 L 201.84375 122.460938 L 201.648438 122.171875 C 197.769531 116.484375 193.191406 111.835938 188.042969 108.347656 C 181.535156 103.941406 173.632812 101.488281 165.796875 101.441406 L 158.976562 101.402344 L 163.558594 106.460938 C 167.378906 110.671875 171.175781 115.320312 173.101562 120.808594 C 174.855469 125.804688 174.828125 133.273438 170.621094 137.867188 L 169.296875 139.308594 L 170.085938 141.101562 C 171.519531 144.367188 172.789062 147.644531 173.867188 150.851562 L 174.539062 152.84375 L 175.066406 154.625 C 175.488281 156.058594 175.847656 157.351562 176.167969 158.582031 L 176.714844 160.707031 L 177.105469 162.441406 C 178.472656 168.515625 179.332031 174.671875 179.65625 180.734375 C 179.996094 186.957031 179.824219 193.539062 179.671875 199.425781 C 179.316406 213.546875 178.980469 226.878906 183.953125 239.476562 C 188.5 250.976562 197.46875 260.6875 208.519531 266.09375 C 208.574219 266.128906 208.621094 266.171875 208.667969 266.214844 L 209.511719 266.945312 L 216.84375 266.980469 C 227.898438 267.042969 240.425781 267.113281 252.917969 267.113281 C 277.371094 267.113281 297.128906 266.832031 315.09375 266.230469 L 317.992188 266.101562 L 317.992188 263.269531 C 319.03125 241.234375 329.035156 220.902344 338.734375 201.183594 C 342.039062 194.460938 345.457031 187.507812 348.457031 180.609375 Z M 348.457031 180.609375 " style=" stroke:none;fill-rule:nonzero;fill:rgb(100%,82.352941%,73.333333%);fill-opacity:1;" />
<path d="M 51.988281 372.679688 L 52.851562 373.226562 L 57.882812 373.082031 C 79.226562 372.457031 103.414062 371.753906 126.988281 370.164062 L 129.714844 369.980469 L 129.785156 367.25 C 130.191406 351.757812 136.703125 337.261719 143.003906 323.242188 C 145.085938 318.613281 147.441406 313.367188 149.441406 308.308594 C 157.257812 288.445312 161.183594 266.675781 160.796875 245.34375 C 160.742188 242.398438 160.59375 239.292969 159.457031 236.585938 C 158.230469 233.636719 155.871094 231.554688 153.296875 231.144531 C 152.972656 231.097656 152.644531 231.070312 152.316406 231.070312 C 147.222656 231.070312 143.648438 236.972656 141.96875 240.492188 C 141.46875 241.539062 140.972656 242.585938 140.460938 243.640625 C 136.671875 251.539062 132.75 259.703125 130.34375 268.082031 L 130.304688 268.21875 L 130.277344 268.359375 C 129.566406 272.164062 128.820312 275.863281 128.257812 278.617188 C 128.242188 278.664062 128.21875 278.707031 128.195312 278.75 L 127.335938 280.339844 L 127.207031 280.308594 L 127.203125 278.363281 C 127.542969 275.039062 128.207031 271.667969 129.230469 268.0625 L 129.269531 267.925781 L 129.292969 267.789062 C 132.546875 250.308594 135.886719 227.304688 132.777344 204.398438 C 132.25 200.519531 131.628906 196.757812 129.824219 193.40625 C 129.085938 192.035156 126.285156 187.523438 121.300781 186.988281 C 121 186.957031 120.699219 186.941406 120.402344 186.941406 C 116.109375 186.941406 112.605469 190.011719 110.753906 192.886719 C 108.472656 196.433594 107.558594 200.582031 106.679688 205.246094 C 102.53125 227.316406 99.953125 249.875 99.019531 272.316406 L 98.949219 274.003906 C 98.945312 274.089844 98.882812 274.210938 98.84375 274.273438 L 98.433594 274.953125 L 97.957031 274.226562 C 97.929688 274.183594 97.878906 274.085938 97.886719 273.941406 L 97.945312 272.261719 C 98.859375 249.40625 99.890625 223.507812 93.890625 198.96875 C 93.148438 195.921875 92.183594 192.441406 90.15625 189.640625 C 88.167969 186.894531 85.195312 185.191406 82.394531 185.191406 C 82.226562 185.191406 82.054688 185.195312 81.90625 185.207031 C 78.910156 185.40625 75.984375 187.574219 74.265625 190.867188 C 72.699219 193.886719 72.234375 197.433594 71.890625 200.816406 C 69.484375 225.320312 72.25 250.167969 74.921875 274.195312 L 74.9375 274.304688 C 74.9375 274.371094 74.921875 274.433594 74.914062 274.5 L 74.640625 276.257812 L 74.441406 276.273438 L 73.9375 274.617188 C 73.917969 274.550781 73.894531 274.480469 73.867188 274.40625 L 60.140625 215.527344 C 59.140625 211.261719 58.109375 206.851562 55.546875 203.238281 C 53.785156 200.75 50.289062 197.839844 46.234375 197.839844 C 45.65625 197.839844 45.082031 197.898438 44.539062 198.015625 C 41.207031 198.722656 38.277344 201.609375 36.898438 205.542969 C 35.628906 209.148438 35.660156 213.007812 35.808594 216.976562 C 36.488281 234.765625 39.347656 252.5 44.304688 269.691406 L 44.445312 270.175781 L 44.734375 270.589844 C 47.824219 274.972656 50.324219 280.171875 52.164062 286.03125 L 52.570312 287.363281 C 53.546875 290.582031 54.5625 293.910156 56.847656 296.273438 C 58.558594 298.046875 60.875 299.152344 63.105469 300.214844 C 63.867188 300.582031 64.625 300.945312 65.355469 301.328125 C 75.679688 306.738281 82.675781 317.757812 83.179688 329.410156 C 83.191406 329.585938 83.113281 329.710938 83.042969 329.78125 C 82.976562 329.855469 82.855469 329.945312 82.648438 329.953125 C 82.355469 329.953125 82.128906 329.734375 82.113281 329.441406 C 81.628906 318.171875 74.855469 307.507812 64.855469 302.273438 C 64.136719 301.894531 63.394531 301.539062 62.632812 301.175781 C 60.316406 300.070312 57.914062 298.921875 56.074219 297.015625 C 53.621094 294.480469 52.566406 291.027344 51.546875 287.683594 L 51.140625 286.363281 C 49.367188 280.722656 46.984375 275.710938 44.042969 271.464844 L 43.875 271.222656 L 43.664062 271.015625 C 43.609375 270.960938 43.566406 270.90625 43.539062 270.847656 L 43.414062 270.582031 L 43.238281 270.347656 C 40.359375 266.453125 37.019531 263.300781 33.308594 260.96875 C 30.3125 259.09375 27.019531 257.796875 23.519531 257.117188 L 15.347656 255.53125 L 20.625 261.964844 C 21.855469 263.464844 22.707031 265.21875 23.089844 267.042969 C 23.875 270.757812 22.765625 274.8125 20.1875 277.625 L 18.742188 279.195312 L 19.757812 281.074219 C 21.03125 283.441406 22.199219 285.867188 23.226562 288.292969 L 23.992188 290.101562 L 24.671875 291.949219 C 27.171875 298.730469 28.75 305.691406 29.371094 312.644531 C 29.757812 317.023438 29.796875 321.53125 29.835938 325.941406 L 29.839844 326.074219 C 29.941406 336.105469 30.039062 345.578125 33.878906 354.382812 C 37.394531 362.429688 44 369.097656 51.988281 372.679688 Z M 51.988281 372.679688 " style=" stroke:none;fill-rule:nonzero;fill:rgb(100%,82.352941%,73.333333%);fill-opacity:1;" />
<path d="M 439.652344 404.089844 C 438.859375 404.089844 438.0625 404.179688 437.289062 404.355469 C 432.265625 405.464844 428.332031 410.023438 427.265625 415.96875 C 426.488281 420.359375 427.734375 425.039062 430.515625 428.175781 C 432.894531 430.875 436.4375 432.488281 439.996094 432.488281 C 440.835938 432.488281 441.667969 432.398438 442.476562 432.21875 C 445.710938 431.476562 448.738281 429.210938 450.578125 426.148438 C 453.492188 421.304688 453.242188 414.699219 449.976562 410.089844 C 447.234375 406.21875 443.566406 404.089844 439.652344 404.089844 Z M 439.652344 404.089844 " style=" stroke:none;fill-rule:nonzero;fill:rgb(97.647059%,84.705882%,53.72549%);fill-opacity:1;" />
<path d="M 219.386719 319.601562 C 218.605469 319.601562 217.8125 319.691406 217.035156 319.863281 C 212.011719 320.988281 208.078125 325.550781 207.015625 331.488281 C 206.238281 335.859375 207.480469 340.535156 210.261719 343.703125 C 212.652344 346.394531 216.191406 348.003906 219.734375 348.003906 C 220.585938 348.003906 221.421875 347.910156 222.214844 347.730469 C 225.445312 347.003906 228.480469 344.734375 230.328125 341.660156 C 233.242188 336.820312 232.996094 330.214844 229.722656 325.597656 C 226.980469 321.730469 223.308594 319.601562 219.386719 319.601562 Z M 219.386719 319.601562 " style=" stroke:none;fill-rule:nonzero;fill:rgb(97.647059%,84.705882%,53.72549%);fill-opacity:1;" />
<path d="M 219.734375 387.601562 C 220.582031 387.601562 221.421875 387.511719 222.214844 387.328125 C 225.445312 386.605469 228.480469 384.335938 230.328125 381.261719 C 233.242188 376.421875 232.996094 369.816406 229.722656 365.195312 C 226.976562 361.332031 223.308594 359.203125 219.386719 359.203125 C 218.601562 359.203125 217.8125 359.292969 217.03125 359.464844 C 212.007812 360.589844 208.078125 365.148438 207.011719 371.089844 C 206.238281 375.460938 207.480469 380.136719 210.261719 383.304688 C 212.652344 385.996094 216.191406 387.601562 219.734375 387.601562 Z M 219.734375 387.601562 " style=" stroke:none;fill-rule:nonzero;fill:rgb(97.647059%,84.705882%,53.72549%);fill-opacity:1;" />
<path d="M 67.179688 435.644531 C 68.027344 435.644531 68.867188 435.550781 69.652344 435.371094 C 72.882812 434.648438 75.917969 432.378906 77.769531 429.300781 C 80.683594 424.460938 80.4375 417.855469 77.164062 413.234375 C 74.417969 409.375 70.746094 407.246094 66.828125 407.246094 C 66.042969 407.246094 65.25 407.332031 64.46875 407.507812 C 59.453125 408.632812 55.527344 413.191406 54.464844 419.121094 C 53.675781 423.5 54.917969 428.179688 57.707031 431.339844 C 60.089844 434.035156 63.628906 435.644531 67.179688 435.644531 Z M 67.179688 435.644531 " style=" stroke:none;fill-rule:nonzero;fill:rgb(97.647059%,84.705882%,53.72549%);fill-opacity:1;" />
<path d="M 352.195312 182.230469 C 364.339844 154.292969 371.03125 123.421875 371.542969 92.960938 C 371.617188 88.429688 371.546875 83.621094 369.816406 79.035156 C 367.714844 73.460938 363.289062 69.394531 358.269531 68.425781 C 350.496094 66.921875 343.054688 72.167969 337.324219 83.1875 C 336.578125 84.625 335.820312 86.070312 335.058594 87.527344 C 334.03125 89.488281 333 91.457031 331.976562 93.433594 C 334.960938 73.78125 336.285156 53.722656 334.28125 33.726562 C 333.714844 28.09375 332.941406 22.140625 330.269531 16.726562 C 327.058594 10.226562 321.5 5.828125 315.398438 4.964844 C 308.457031 3.988281 300.9375 7.726562 296.226562 14.503906 C 292.410156 19.984375 290.746094 26.441406 289.246094 33.128906 C 287.4375 41.179688 285.777344 49.285156 284.269531 57.425781 C 283.640625 46.167969 282.324219 34.925781 280.007812 23.777344 C 279.03125 19.066406 277.722656 13.652344 274.59375 9.007812 C 270.933594 3.574219 265.121094 0.320312 259.558594 0.507812 C 253.851562 0.699219 248.265625 4.429688 244.988281 10.246094 C 242.246094 15.101562 241.351562 20.492188 240.667969 25.601562 C 238.359375 42.878906 237.867188 60.289062 238.273438 77.628906 L 231.957031 45.496094 C 230.742188 39.320312 229.367188 32.324219 225.46875 26.390625 C 221.621094 20.535156 214.101562 15.261719 205.992188 16.683594 C 199.835938 17.761719 194.351562 22.671875 191.671875 29.503906 C 189.4375 35.207031 189.273438 41.292969 189.292969 47.039062 C 189.363281 67.917969 191.527344 88.769531 195.738281 109.210938 C 194.058594 107.714844 192.261719 106.292969 190.328125 104.984375 C 175.734375 95.09375 156.730469 94.710938 144.117188 104.046875 C 143.289062 104.65625 142.773438 105.597656 142.695312 106.625 C 142.617188 107.648438 142.992188 108.65625 143.71875 109.382812 C 162.546875 128.25 174.164062 154.332031 175.59375 180.945312 C 175.914062 186.945312 175.757812 193.195312 175.601562 199.246094 C 175.246094 213.179688 174.878906 227.585938 180.167969 240.96875 C 183.742188 250.015625 189.863281 258.035156 197.558594 264 C 196.894531 264.164062 196.28125 264.511719 195.808594 265.023438 C 195.136719 265.75 194.800781 266.726562 194.882812 267.714844 L 197.675781 301.214844 C 197.730469 301.875 197.96875 302.46875 198.328125 302.96875 C 195.707031 304.695312 193.285156 307.417969 191.660156 311.730469 C 189.640625 317.09375 189.453125 323.332031 189.429688 330.34375 C 189.394531 340.539062 189.285156 350.945312 189.179688 361.003906 C 188.96875 381.238281 188.753906 402.160156 189.101562 422.640625 C 189.800781 464.308594 207.671875 468.484375 229.527344 468.484375 C 230.078125 468.484375 230.632812 468.484375 231.1875 468.476562 C 261.066406 468.222656 291.296875 464.917969 321.039062 458.664062 C 324.496094 457.9375 329.71875 456.839844 333.417969 451.226562 C 338.007812 444.25 338.417969 432.988281 338.441406 422.984375 L 338.660156 328.777344 C 338.675781 320.382812 338.457031 312.34375 335.574219 306.296875 C 334 302.996094 331.910156 300.886719 329.675781 299.515625 C 329.792969 299.128906 329.855469 298.722656 329.828125 298.296875 L 327.835938 266.21875 C 327.71875 264.296875 326.117188 262.84375 324.164062 262.902344 C 323.476562 262.933594 322.78125 262.949219 322.09375 262.976562 C 323.214844 241.964844 332.941406 222.167969 342.367188 203.019531 C 345.699219 196.242188 349.148438 189.234375 352.195312 182.230469 Z M 160.632812 104.8125 C 164.996094 109.519531 169.90625 114.851562 172.117188 121.152344 C 173.671875 125.582031 173.765625 131.546875 170.941406 135.796875 C 165.949219 125.523438 159.507812 115.960938 151.785156 107.585938 C 154.496094 106.195312 157.496094 105.285156 160.632812 104.8125 Z M 331.585938 328.761719 L 331.371094 422.96875 C 331.355469 429.460938 331.328125 441.539062 327.511719 447.339844 C 325.566406 450.292969 322.996094 451.03125 319.582031 451.75 C 290.296875 457.90625 260.535156 461.15625 231.125 461.410156 C 213.480469 461.5625 196.824219 461.703125 196.164062 422.523438 C 195.824219 402.132812 196.039062 381.261719 196.246094 361.078125 C 196.351562 351.003906 196.460938 340.589844 196.496094 330.367188 C 196.515625 325.226562 196.535156 318.828125 198.273438 314.222656 C 200.476562 308.375 204.371094 307.140625 210.351562 306.984375 L 318.128906 304.167969 C 318.539062 304.15625 318.9375 304.152344 319.320312 304.152344 C 324.226562 304.152344 327.175781 305.109375 329.191406 309.335938 C 331.433594 314.046875 331.605469 321.210938 331.585938 328.761719 Z M 317.945312 297.101562 L 210.167969 299.917969 C 208.808594 299.953125 206.859375 300.007812 204.703125 300.433594 L 202.246094 270.972656 C 207.105469 270.996094 211.964844 271.023438 216.824219 271.050781 C 250.949219 271.242188 286.203125 271.4375 320.996094 270.105469 L 322.675781 297.234375 C 320.855469 297.035156 319.199219 297.070312 317.945312 297.101562 Z M 314.992188 263.230469 C 282.207031 264.332031 249.039062 264.160156 216.863281 263.980469 C 214.789062 263.96875 212.714844 263.960938 210.640625 263.949219 C 210.410156 263.75 210.164062 263.566406 209.875 263.425781 C 199.441406 258.308594 191.007812 249.175781 186.738281 238.367188 C 181.980469 226.324219 182.3125 213.261719 182.667969 199.425781 C 182.824219 193.242188 182.988281 186.84375 182.652344 180.566406 C 182.265625 173.40625 181.1875 166.367188 179.269531 159.46875 C 178.28125 155.902344 177.304688 152.335938 176.167969 148.816406 C 175.84375 147.804688 172.542969 140.214844 172.832031 139.898438 C 177.851562 134.410156 178.066406 125.902344 175.929688 119.816406 C 173.828125 113.824219 169.777344 108.859375 165.785156 104.445312 C 172.800781 104.480469 180.128906 106.613281 186.363281 110.835938 C 191.660156 114.425781 195.839844 118.984375 199.164062 123.863281 C 199.367188 124.378906 199.671875 124.835938 200.0625 125.191406 C 204.507812 132.105469 207.269531 139.539062 208.96875 145.707031 C 209.140625 146.320312 209.300781 146.933594 209.464844 147.550781 C 210.75 152.363281 212.207031 157.816406 215.980469 162.007812 C 218.796875 165.132812 222.339844 166.980469 225.761719 168.769531 C 226.757812 169.285156 227.75 169.804688 228.714844 170.355469 C 241.609375 177.691406 250.023438 192.019531 250.144531 206.855469 C 250.160156 208.796875 251.742188 210.359375 253.675781 210.359375 C 253.6875 210.359375 253.699219 210.359375 253.707031 210.359375 C 255.660156 210.34375 257.230469 208.75 257.214844 206.796875 C 257.070312 189.488281 247.253906 172.773438 232.210938 164.210938 C 231.171875 163.617188 230.105469 163.058594 229.03125 162.5 C 226.03125 160.933594 223.199219 159.457031 221.230469 157.273438 C 218.597656 154.351562 217.480469 150.164062 216.296875 145.730469 C 216.125 145.09375 215.957031 144.460938 215.785156 143.828125 C 213.882812 136.9375 210.75 128.605469 205.648438 120.828125 C 199.574219 96.710938 196.445312 71.882812 196.359375 47.015625 C 196.339844 41.953125 196.472656 36.628906 198.253906 32.085938 C 200.007812 27.601562 203.523438 24.292969 207.207031 23.648438 C 212.160156 22.777344 216.980469 26.351562 219.558594 30.273438 C 222.699219 35.046875 223.878906 41.050781 225.019531 46.859375 L 241.359375 130.003906 C 241.386719 130.144531 241.4375 130.273438 241.480469 130.40625 C 239.964844 130.851562 238.472656 131.367188 237.015625 131.964844 C 235.984375 132.390625 235.488281 133.570312 235.914062 134.601562 C 236.234375 135.382812 236.988281 135.855469 237.78125 135.855469 C 238.039062 135.855469 238.296875 135.804688 238.546875 135.703125 C 244.097656 133.421875 250.191406 132.359375 256.199219 132.605469 C 257.320312 132.660156 258.253906 131.785156 258.300781 130.671875 C 258.347656 129.558594 257.480469 128.617188 256.367188 128.570312 C 253.695312 128.457031 251.007812 128.597656 248.34375 128.953125 C 245.785156 95.277344 243.144531 60.453125 247.675781 26.535156 C 248.265625 22.113281 249.019531 17.480469 251.140625 13.71875 C 253.1875 10.09375 256.582031 7.679688 259.792969 7.574219 C 262.945312 7.441406 266.453125 9.582031 268.730469 12.960938 C 271.144531 16.542969 272.246094 21.164062 273.085938 25.214844 C 280.054688 58.753906 277.65625 93.582031 275.128906 127.34375 C 275.070312 128.109375 275.015625 128.878906 274.957031 129.660156 C 274.921875 130.117188 274.984375 130.558594 275.113281 130.972656 L 271.808594 130.578125 C 270.703125 130.457031 269.699219 131.238281 269.566406 132.34375 C 269.433594 133.453125 270.226562 134.457031 271.332031 134.589844 L 283.964844 136.097656 C 284.046875 136.105469 284.128906 136.109375 284.207031 136.109375 C 285.214844 136.109375 286.089844 135.355469 286.210938 134.328125 C 286.339844 133.222656 285.550781 132.214844 284.445312 132.085938 L 281.496094 131.734375 C 281.773438 131.273438 281.960938 130.753906 282.003906 130.167969 C 282.0625 129.40625 282.121094 128.640625 282.175781 127.878906 C 284.578125 96.605469 289.273438 65.261719 296.144531 34.679688 C 297.535156 28.476562 298.941406 22.980469 302.027344 18.542969 C 304.652344 14.769531 309.492188 11.269531 314.40625 11.96875 C 318.867188 12.597656 322.25 16.457031 323.929688 19.859375 C 326.082031 24.210938 326.75 29.445312 327.25 34.433594 C 330.203125 63.910156 325.640625 93.773438 319.300781 122.253906 C 317.730469 127.132812 316.523438 132.09375 315.828125 137.148438 L 312.121094 135.976562 C 311.058594 135.640625 309.921875 136.230469 309.585938 137.292969 C 309.25 138.359375 309.839844 139.492188 310.90625 139.828125 L 322.257812 143.421875 C 322.460938 143.484375 322.667969 143.515625 322.871094 143.515625 C 323.726562 143.515625 324.523438 142.964844 324.792969 142.105469 C 325.128906 141.042969 324.542969 139.90625 323.480469 139.570312 L 322.515625 139.265625 C 322.609375 139.058594 322.6875 138.839844 322.742188 138.609375 C 323.898438 133.84375 325.03125 129.027344 326.117188 124.171875 C 329.8125 112.796875 335.636719 101.671875 341.324219 90.8125 C 342.089844 89.351562 342.851562 87.894531 343.601562 86.449219 C 345.539062 82.722656 350.710938 74.179688 356.933594 75.371094 C 359.523438 75.871094 361.984375 78.289062 363.207031 81.53125 C 364.496094 84.953125 364.539062 88.996094 364.476562 92.847656 C 363.980469 122.386719 357.492188 152.320312 345.714844 179.417969 C 342.734375 186.269531 339.324219 193.199219 336.023438 199.90625 C 326.199219 219.867188 316.039062 240.511719 314.992188 263.203125 C 314.988281 263.210938 314.992188 263.222656 314.992188 263.230469 Z M 314.992188 263.230469 " style=" stroke:none;fill-rule:nonzero;fill:rgb(0%,0%,0%);fill-opacity:1;" />
<path d="M 163.210938 235.015625 C 161.4375 230.769531 157.882812 227.75 153.933594 227.128906 C 147.867188 226.175781 142.316406 230.304688 138.296875 238.742188 C 137.957031 239.457031 137.613281 240.175781 137.265625 240.898438 C 138.382812 228.625 138.488281 216.195312 136.8125 203.847656 C 136.253906 199.753906 135.535156 195.425781 133.414062 191.484375 C 130.804688 186.632812 126.4375 183.441406 121.734375 182.941406 C 116.40625 182.375 110.738281 185.410156 107.34375 190.679688 C 104.660156 194.839844 103.609375 199.589844 102.6875 204.492188 C 102.058594 207.828125 101.46875 211.171875 100.914062 214.523438 C 100.179688 208.988281 99.183594 203.476562 97.84375 198.003906 C 97.007812 194.574219 95.90625 190.632812 93.453125 187.253906 C 90.503906 183.191406 85.964844 180.851562 81.628906 181.152344 C 77.210938 181.453125 73.003906 184.464844 70.652344 189.003906 C 68.738281 192.6875 68.214844 196.667969 67.847656 200.425781 C 66.980469 209.261719 66.769531 218.113281 66.980469 226.941406 L 64.125 214.695312 C 63.082031 210.234375 61.902344 205.171875 58.863281 200.882812 C 55.78125 196.53125 49.898438 192.726562 43.695312 194.039062 C 38.992188 195.03125 34.914062 198.925781 33.058594 204.191406 C 31.550781 208.480469 31.582031 212.9375 31.742188 217.128906 C 32.28125 231.136719 34.140625 245.078125 37.269531 258.738281 C 36.6875 258.320312 36.09375 257.914062 35.476562 257.527344 C 24.46875 250.613281 10.425781 250.839844 1.332031 258.074219 C 0.527344 258.714844 0.0429688 259.671875 0.00390625 260.699219 C -0.0390625 261.726562 0.371094 262.71875 1.121094 263.421875 C 14.835938 276.234375 23.65625 294.308594 25.316406 313.007812 C 25.691406 317.234375 25.734375 321.679688 25.773438 325.976562 C 25.867188 336.019531 25.964844 346.40625 30.152344 356.003906 C 32.800781 362.078125 37.035156 367.441406 42.265625 371.515625 C 42.199219 371.578125 42.125 371.632812 42.066406 371.703125 C 41.417969 372.453125 41.117188 373.441406 41.234375 374.425781 L 43.871094 396.613281 C 42.507812 397.429688 41.277344 398.539062 40.34375 400.066406 C 38.496094 403.109375 38.648438 406.554688 38.761719 409.070312 C 38.945312 413.152344 39.082031 417.328125 39.214844 421.363281 C 39.484375 429.507812 39.757812 437.921875 40.433594 446.1875 C 41.855469 463.714844 54.921875 465.828125 66.679688 465.828125 C 68.644531 465.828125 70.574219 465.769531 72.40625 465.714844 C 93.675781 465.0625 115.136719 463.183594 136.1875 460.136719 C 138.664062 459.777344 142.414062 459.234375 145.191406 456.675781 C 149.402344 452.800781 149.113281 446.605469 148.957031 443.277344 L 147.167969 405.492188 C 147.03125 402.566406 146.820312 398.144531 143.855469 394.917969 C 142.78125 393.75 141.527344 392.941406 140.203125 392.367188 L 138.011719 369.824219 C 137.824219 367.910156 136.128906 366.496094 134.226562 366.644531 C 134.109375 366.652344 133.996094 366.660156 133.878906 366.667969 C 134.421875 352.296875 140.390625 338.980469 146.714844 324.910156 C 148.925781 319.984375 151.214844 314.890625 153.222656 309.800781 C 161.234375 289.453125 165.261719 267.140625 164.863281 245.273438 C 164.804688 241.945312 164.625 238.410156 163.210938 235.015625 Z M 16.109375 259.6875 C 19.078125 261.132812 21.398438 264.035156 22.078125 267.261719 C 22.699219 270.191406 21.976562 273.433594 20.242188 275.894531 C 17.085938 270.707031 13.386719 265.855469 9.199219 261.476562 C 11.316406 260.492188 13.664062 259.902344 16.109375 259.6875 Z M 140.402344 451.472656 C 139.320312 452.46875 137.390625 452.816406 135.167969 453.140625 C 114.382812 456.152344 93.191406 458.003906 72.1875 458.648438 C 55.550781 459.152344 48.4375 457.460938 47.476562 445.613281 C 46.816406 437.519531 46.542969 429.1875 46.28125 421.132812 C 46.144531 417.074219 46.007812 412.875 45.820312 408.753906 C 45.730469 406.667969 45.707031 404.851562 46.382812 403.742188 C 47.53125 401.851562 50.984375 401.464844 54.214844 401.335938 L 131.019531 398.226562 C 133.945312 398.109375 137.191406 398.113281 138.652344 399.699219 C 139.785156 400.9375 139.988281 403.304688 140.109375 405.828125 L 141.890625 443.609375 C 142.035156 446.621094 142.046875 449.960938 140.402344 451.472656 Z M 130.734375 391.160156 L 53.933594 394.273438 C 53.066406 394.308594 51.957031 394.355469 50.734375 394.492188 L 48.707031 377.425781 C 51.808594 377.328125 54.902344 377.238281 58 377.148438 C 82.027344 376.445312 106.832031 375.714844 131.3125 373.949219 L 132.980469 391.105469 C 132.148438 391.105469 131.382812 391.132812 130.734375 391.160156 Z M 146.648438 307.210938 C 144.703125 312.148438 142.449219 317.164062 140.269531 322.015625 C 133.835938 336.320312 127.210938 351.105469 126.792969 367.167969 C 103.757812 368.722656 80.429688 369.417969 57.792969 370.082031 C 56.425781 370.125 55.058594 370.164062 53.6875 370.203125 C 53.542969 370.113281 53.398438 370.019531 53.238281 369.949219 C 45.898438 366.664062 39.84375 360.550781 36.628906 353.179688 C 33.019531 344.898438 32.933594 335.675781 32.839844 325.910156 C 32.796875 321.476562 32.753906 316.890625 32.355469 312.378906 C 31.699219 305.011719 30.226562 297.402344 27.082031 290.714844 C 26.042969 288.507812 25.167969 286.210938 24.214844 283.96875 C 23.8125 283.03125 22.253906 280.703125 22.390625 279.65625 C 25.621094 276.144531 27.015625 271.097656 26.03125 266.425781 C 25.535156 264.085938 24.453125 261.902344 22.949219 260.066406 C 25.984375 260.652344 28.984375 261.796875 31.714844 263.511719 C 35.425781 265.84375 38.414062 268.867188 40.828125 272.136719 C 41.015625 272.535156 41.273438 272.882812 41.582031 273.175781 C 44.835938 277.882812 46.9375 283 48.277344 287.261719 C 48.410156 287.691406 48.542969 288.125 48.675781 288.558594 C 49.742188 292.066406 50.957031 296.042969 53.917969 299.105469 C 56.132812 301.398438 58.90625 302.722656 61.355469 303.894531 C 62.066406 304.234375 62.777344 304.574219 63.46875 304.9375 C 72.53125 309.683594 78.671875 319.355469 79.113281 329.574219 C 79.199219 331.527344 80.832031 333.027344 82.796875 332.953125 C 84.746094 332.867188 86.261719 331.21875 86.175781 329.269531 C 85.628906 316.578125 78 304.570312 66.746094 298.675781 C 65.980469 298.273438 65.191406 297.894531 64.402344 297.515625 C 62.308594 296.515625 60.332031 295.570312 59.003906 294.195312 C 57.222656 292.351562 56.355469 289.507812 55.4375 286.496094 C 55.296875 286.042969 55.160156 285.59375 55.023438 285.144531 C 53.484375 280.238281 51.035156 274.335938 47.1875 268.859375 C 42.308594 251.9375 39.480469 234.449219 38.804688 216.859375 C 38.664062 213.199219 38.628906 209.65625 39.722656 206.539062 C 40.75 203.628906 42.882812 201.433594 45.152344 200.953125 C 48.1875 200.300781 51.402344 202.582031 53.089844 204.96875 C 55.332031 208.128906 56.300781 212.285156 57.238281 216.300781 L 70.960938 275.179688 C 70.988281 275.289062 71.035156 275.390625 71.070312 275.492188 L 67.5 275.773438 C 66.386719 275.859375 65.554688 276.832031 65.640625 277.945312 C 65.726562 279.003906 66.609375 279.808594 67.652344 279.808594 C 67.707031 279.808594 67.757812 279.804688 67.8125 279.800781 L 80.820312 278.785156 C 81.929688 278.699219 82.761719 277.726562 82.675781 276.613281 C 82.589844 275.503906 81.609375 274.671875 80.503906 274.757812 L 77.875 274.960938 C 77.929688 274.644531 77.953125 274.320312 77.917969 273.984375 C 75.253906 250.070312 72.5 225.34375 74.878906 201.117188 C 75.183594 198.042969 75.589844 194.828125 76.921875 192.257812 C 78.132812 189.925781 80.167969 188.335938 82.109375 188.203125 C 84.007812 188.058594 86.222656 189.328125 87.726562 191.402344 C 89.429688 193.75 90.296875 196.90625 90.976562 199.679688 C 96.746094 223.277344 95.90625 248.085938 94.949219 272.144531 C 94.925781 272.707031 94.90625 273.265625 94.882812 273.832031 C 94.855469 274.582031 95.066406 275.285156 95.445312 275.875 L 90.070312 275.917969 C 88.957031 275.925781 88.058594 276.835938 88.066406 277.949219 C 88.078125 279.058594 88.980469 279.953125 90.101562 279.953125 L 104.0625 279.847656 C 105.175781 279.839844 106.074219 278.929688 106.066406 277.8125 C 106.058594 276.703125 105.15625 275.808594 104.03125 275.808594 L 101.40625 275.828125 C 101.71875 275.324219 101.921875 274.742188 101.945312 274.105469 C 101.96875 273.546875 101.992188 272.984375 102.015625 272.425781 C 102.945312 250.132812 105.503906 227.730469 109.628906 205.800781 C 110.449219 201.453125 111.285156 197.601562 113.28125 194.511719 C 114.890625 192.015625 117.875 189.640625 120.984375 189.972656 C 123.789062 190.269531 126.027344 192.679688 127.1875 194.835938 C 128.75 197.738281 129.316406 201.207031 129.804688 204.800781 C 132.625 225.59375 130.132812 246.878906 126.34375 267.242188 C 125.328125 270.832031 124.574219 274.480469 124.203125 278.195312 C 124.191406 278.285156 124.203125 278.367188 124.199219 278.457031 L 121.480469 277.753906 C 120.398438 277.476562 119.296875 278.121094 119.019531 279.199219 C 118.738281 280.28125 119.390625 281.382812 120.46875 281.664062 L 134.414062 285.273438 C 134.585938 285.320312 134.753906 285.339844 134.921875 285.339844 C 135.820312 285.339844 136.640625 284.738281 136.875 283.828125 C 137.15625 282.746094 136.507812 281.644531 135.429688 281.363281 L 130.839844 280.175781 C 130.988281 279.890625 131.113281 279.589844 131.179688 279.261719 C 131.882812 275.84375 132.570312 272.394531 133.222656 268.917969 C 135.550781 260.796875 139.402344 252.773438 143.164062 244.9375 C 143.671875 243.878906 144.179688 242.828125 144.675781 241.78125 C 145.609375 239.828125 148.953125 233.511719 152.835938 234.113281 C 154.355469 234.351562 155.867188 235.773438 156.683594 237.738281 C 157.621094 239.984375 157.746094 242.753906 157.792969 245.402344 C 158.175781 266.347656 154.320312 287.722656 146.648438 307.210938 Z M 146.648438 307.210938 " style=" stroke:none;fill-rule:nonzero;fill:rgb(0%,0%,0%);fill-opacity:1;" />
<path d="M 510.75 260.679688 C 501.886719 253.160156 487.859375 252.496094 476.640625 259.0625 C 476.011719 259.429688 475.40625 259.816406 474.808594 260.214844 C 478.367188 246.660156 480.660156 232.785156 481.636719 218.804688 C 481.929688 214.617188 482.101562 210.164062 480.726562 205.832031 C 479.039062 200.507812 475.085938 196.488281 470.414062 195.347656 C 464.269531 193.851562 458.257812 197.460938 455.039062 201.710938 C 451.863281 205.910156 450.527344 210.929688 449.347656 215.355469 L 446.109375 227.507812 C 446.597656 218.691406 446.664062 209.832031 446.074219 200.976562 C 445.824219 197.207031 445.425781 193.214844 443.628906 189.46875 C 441.417969 184.859375 437.308594 181.71875 432.90625 181.277344 C 428.570312 180.84375 423.972656 183.039062 420.894531 187.007812 C 418.335938 190.3125 417.113281 194.214844 416.167969 197.613281 C 414.660156 203.042969 413.488281 208.519531 412.582031 214.027344 C 412.132812 210.660156 411.648438 207.300781 411.125 203.949219 C 410.355469 199.015625 409.453125 194.238281 406.90625 189.996094 C 403.671875 184.625 398.101562 181.414062 392.761719 181.8125 C 388.042969 182.164062 383.582031 185.21875 380.820312 189.984375 C 378.574219 193.859375 377.71875 198.160156 377.035156 202.238281 C 374.976562 214.527344 374.6875 226.953125 375.421875 239.253906 C 375.097656 238.523438 374.773438 237.792969 374.457031 237.066406 C 370.703125 228.507812 365.289062 224.210938 359.195312 224.96875 C 355.226562 225.464844 351.578125 228.375 349.671875 232.5625 C 348.148438 235.910156 347.863281 239.4375 347.699219 242.761719 C 346.613281 264.605469 349.9375 287.03125 357.308594 307.621094 C 359.152344 312.773438 361.28125 317.9375 363.34375 322.933594 C 369.222656 337.191406 374.765625 350.691406 374.859375 365.070312 C 374.746094 365.058594 374.628906 365.046875 374.515625 365.035156 C 372.59375 364.832031 370.878906 366.1875 370.628906 368.097656 L 367.734375 390.558594 C 366.394531 391.089844 365.113281 391.859375 364.003906 392.992188 C 360.9375 396.128906 360.589844 400.539062 360.363281 403.460938 L 357.394531 441.167969 C 357.132812 444.488281 356.644531 450.667969 360.738281 454.675781 C 363.433594 457.320312 367.164062 457.980469 369.628906 458.417969 C 390.574219 462.125 411.960938 464.675781 433.203125 465.992188 C 435.820312 466.15625 438.632812 466.328125 441.472656 466.328125 C 452.503906 466.328125 463.941406 463.695312 465.773438 447.476562 C 466.703125 439.234375 467.246094 430.824219 467.769531 422.691406 C 468.027344 418.664062 468.292969 414.5 468.605469 410.429688 C 468.796875 407.921875 469.0625 404.484375 467.308594 401.382812 C 466.425781 399.824219 465.226562 398.683594 463.890625 397.820312 L 467.21875 375.726562 C 467.367188 374.75 467.097656 373.75 466.472656 372.980469 C 466.414062 372.910156 466.34375 372.855469 466.28125 372.789062 C 471.636719 368.878906 476.035156 363.648438 478.875 357.664062 C 483.359375 348.199219 483.78125 337.820312 484.191406 327.785156 C 484.367188 323.492188 484.546875 319.050781 485.058594 314.835938 C 487.304688 296.199219 496.683594 278.414062 510.792969 266.035156 C 511.566406 265.355469 512.007812 264.375 512 263.347656 C 511.988281 262.316406 511.53125 261.34375 510.75 260.679688 Z M 461.554688 409.886719 C 461.242188 414 460.972656 418.1875 460.710938 422.234375 C 460.195312 430.28125 459.660156 438.605469 458.75 446.679688 C 457.65625 456.351562 453.917969 460.1875 433.640625 458.933594 C 412.664062 457.628906 391.542969 455.113281 370.863281 451.453125 C 368.652344 451.0625 366.734375 450.652344 365.683594 449.625 C 364.085938 448.058594 364.207031 444.722656 364.441406 441.71875 L 367.410156 404.011719 C 367.605469 401.492188 367.878906 399.132812 369.054688 397.933594 C 370.105469 396.859375 371.996094 396.578125 374.035156 396.578125 C 374.925781 396.578125 375.84375 396.632812 376.730469 396.695312 L 453.398438 402.210938 C 456.621094 402.445312 460.066406 402.941406 461.152344 404.863281 C 461.796875 405.996094 461.714844 407.808594 461.554688 409.886719 Z M 453.90625 395.160156 L 377.238281 389.644531 C 376.589844 389.597656 375.828125 389.546875 374.996094 389.519531 L 377.199219 372.421875 C 401.613281 374.957031 426.386719 376.460938 450.382812 377.917969 C 453.472656 378.105469 456.5625 378.296875 459.65625 378.484375 L 457.09375 395.480469 C 455.875 395.304688 454.769531 395.222656 453.90625 395.160156 Z M 478.039062 313.984375 C 477.496094 318.480469 477.308594 323.0625 477.128906 327.492188 C 476.730469 337.25 476.355469 346.46875 472.484375 354.632812 C 469.042969 361.898438 462.800781 367.816406 455.359375 370.875 C 455.195312 370.941406 455.050781 371.027344 454.90625 371.117188 C 453.539062 371.03125 452.175781 370.949219 450.8125 370.863281 C 428.203125 369.488281 404.90625 368.066406 381.929688 365.789062 C 382.015625 349.722656 375.855469 334.734375 369.878906 320.234375 C 367.851562 315.316406 365.753906 310.230469 363.964844 305.238281 C 356.90625 285.515625 353.71875 264.03125 354.757812 243.109375 C 354.890625 240.46875 355.101562 237.703125 356.109375 235.484375 C 356.988281 233.546875 358.542969 232.171875 360.070312 231.980469 C 363.976562 231.488281 367.113281 237.921875 367.980469 239.902344 C 368.449219 240.964844 368.921875 242.039062 369.398438 243.117188 C 372.910156 251.0625 376.503906 259.199219 378.582031 267.382812 C 379.121094 270.882812 379.699219 274.351562 380.296875 277.785156 C 380.398438 278.367188 380.648438 278.882812 380.984375 279.320312 L 380.304688 279.503906 C 379.226562 279.789062 378.582031 280.894531 378.871094 281.972656 C 379.109375 282.878906 379.925781 283.476562 380.820312 283.476562 C 380.992188 283.476562 381.167969 283.453125 381.339844 283.40625 L 390.476562 280.984375 C 391.554688 280.695312 392.195312 279.589844 391.910156 278.511719 C 391.625 277.433594 390.515625 276.792969 389.441406 277.078125 L 387.28125 277.652344 C 387.3125 277.421875 387.324219 277.183594 387.308594 276.9375 C 387.050781 273.214844 386.414062 269.546875 385.511719 265.925781 C 382.363281 245.453125 380.539062 224.101562 384.007812 203.40625 C 384.609375 199.824219 385.285156 196.378906 386.9375 193.523438 C 388.164062 191.40625 390.476562 189.066406 393.289062 188.859375 C 396.394531 188.636719 399.316406 191.09375 400.847656 193.636719 C 402.742188 196.785156 403.460938 200.664062 404.144531 205.035156 C 407.578125 227.085938 409.4375 249.574219 409.667969 271.898438 C 409.671875 272.445312 409.675781 272.992188 409.679688 273.550781 C 409.6875 274.117188 409.835938 274.640625 410.078125 275.113281 L 406.066406 275.445312 C 404.957031 275.535156 404.128906 276.511719 404.21875 277.625 C 404.308594 278.679688 405.191406 279.476562 406.230469 279.476562 C 406.285156 279.476562 406.339844 279.476562 406.398438 279.46875 L 417.761719 278.535156 C 418.875 278.445312 419.703125 277.46875 419.609375 276.359375 C 419.519531 275.246094 418.546875 274.40625 417.433594 274.511719 L 416.570312 274.582031 C 416.679688 274.238281 416.753906 273.878906 416.75 273.496094 C 416.746094 272.9375 416.742188 272.378906 416.738281 271.820312 C 416.535156 247.742188 416.476562 222.914062 422.984375 199.507812 C 423.746094 196.753906 424.710938 193.625 426.488281 191.335938 C 428.058594 189.308594 430.300781 188.125 432.203125 188.308594 C 434.140625 188.503906 436.125 190.15625 437.261719 192.523438 C 438.515625 195.136719 438.820312 198.363281 439.023438 201.441406 C 440.644531 225.722656 437.117188 250.359375 433.703125 274.183594 C 433.65625 274.53125 433.671875 274.875 433.722656 275.210938 L 429.738281 275 C 428.621094 274.921875 427.675781 275.800781 427.617188 276.910156 C 427.558594 278.023438 428.414062 278.976562 429.527344 279.035156 L 442.832031 279.730469 C 442.867188 279.734375 442.90625 279.734375 442.941406 279.734375 C 444.007812 279.734375 444.898438 278.898438 444.957031 277.820312 C 445.015625 276.707031 444.160156 275.757812 443.042969 275.699219 L 440.625 275.570312 L 456.183594 217.175781 C 457.242188 213.191406 458.339844 209.070312 460.683594 205.976562 C 462.445312 203.648438 465.71875 201.472656 468.742188 202.214844 C 470.996094 202.765625 473.058594 205.023438 473.992188 207.96875 C 474.992188 211.117188 474.84375 214.65625 474.589844 218.308594 C 473.363281 235.871094 469.988281 253.261719 464.578125 270.019531 C 460.5625 275.375 457.929688 281.199219 456.238281 286.054688 C 456.082031 286.496094 455.933594 286.941406 455.78125 287.390625 C 454.769531 290.371094 453.8125 293.1875 451.976562 294.972656 C 450.605469 296.304688 448.597656 297.1875 446.476562 298.125 C 445.675781 298.476562 444.875 298.828125 444.09375 299.210938 C 432.660156 304.746094 424.660156 316.511719 423.714844 329.179688 C 423.566406 331.128906 425.027344 332.820312 426.976562 332.96875 C 428.917969 333.117188 430.617188 331.652344 430.761719 329.707031 C 431.523438 319.503906 437.964844 310.03125 447.175781 305.570312 C 447.878906 305.230469 448.601562 304.910156 449.324219 304.59375 C 451.804688 303.5 454.617188 302.265625 456.902344 300.046875 C 459.960938 297.070312 461.296875 293.136719 462.472656 289.660156 C 462.617188 289.230469 462.765625 288.804688 462.910156 288.378906 C 464.382812 284.164062 466.644531 279.121094 470.039062 274.519531 C 470.363281 274.234375 470.632812 273.890625 470.835938 273.492188 C 473.347656 270.304688 476.425781 267.375 480.210938 265.164062 C 483.457031 263.261719 487.046875 262.148438 490.609375 261.792969 C 489.34375 262.980469 488.132812 264.246094 487.054688 265.660156 C 485.195312 268.089844 483.011719 271.949219 483.152344 276.527344 C 483.253906 279.90625 484.761719 283.054688 487.101562 285.078125 C 487.742188 285.753906 483.046875 294.390625 482.597656 295.394531 C 480.023438 301.132812 478.789062 307.742188 478.039062 313.984375 Z M 489.128906 281.402344 C 487.984375 280.109375 487.242188 278.304688 487.1875 276.402344 C 487.105469 273.757812 488.199219 270.8125 490.261719 268.113281 C 492.023438 265.804688 494.3125 263.820312 496.597656 261.925781 C 498.789062 262.253906 500.882812 262.882812 502.777344 263.832031 C 497.476562 269.039062 492.894531 274.980469 489.128906 281.402344 Z M 489.128906 281.402344 " style=" stroke:none;fill-rule:nonzero;fill:rgb(0%,0%,0%);fill-opacity:1;" />
<path d="M 429.769531 300.300781 C 430.597656 299.554688 430.664062 298.277344 429.917969 297.449219 C 429.167969 296.621094 427.894531 296.554688 427.066406 297.300781 C 419.03125 304.546875 412.246094 313.5 407.449219 323.191406 C 406.953125 324.191406 407.359375 325.402344 408.359375 325.898438 C 408.648438 326.042969 408.953125 326.109375 409.253906 326.109375 C 410 326.109375 410.714844 325.695312 411.066406 324.984375 C 415.644531 315.746094 422.109375 307.210938 429.769531 300.300781 Z M 429.769531 300.300781 " style=" stroke:none;fill-rule:nonzero;fill:rgb(0%,0%,0%);fill-opacity:1;" />
<path d="M 413.9375 295.378906 C 413.382812 294.410156 412.148438 294.074219 411.179688 294.628906 C 402.386719 299.671875 394.746094 306.78125 389.078125 315.183594 C 388.453125 316.109375 388.699219 317.363281 389.621094 317.988281 C 389.96875 318.222656 390.363281 318.332031 390.75 318.332031 C 391.398438 318.332031 392.035156 318.019531 392.425781 317.441406 C 397.75 309.546875 404.929688 302.871094 413.1875 298.132812 C 414.15625 297.578125 414.492188 296.34375 413.9375 295.378906 Z M 413.9375 295.378906 " style=" stroke:none;fill-rule:nonzero;fill:rgb(0%,0%,0%);fill-opacity:1;" />
<path d="M 84.574219 301.28125 C 83.574219 300.792969 82.363281 301.207031 81.871094 302.207031 C 81.382812 303.207031 81.796875 304.417969 82.796875 304.90625 C 92.199219 309.511719 99.320312 318.324219 101.851562 328.484375 C 102.078125 329.402344 102.902344 330.015625 103.808594 330.015625 C 103.96875 330.015625 104.132812 330 104.296875 329.957031 C 105.378906 329.6875 106.039062 328.59375 105.769531 327.507812 C 102.957031 316.207031 95.03125 306.402344 84.574219 301.28125 Z M 84.574219 301.28125 " style=" stroke:none;fill-rule:nonzero;fill:rgb(0%,0%,0%);fill-opacity:1;" />
<path d="M 91.417969 295.898438 C 90.316406 295.71875 89.28125 296.46875 89.101562 297.570312 C 88.921875 298.671875 89.671875 299.707031 90.773438 299.886719 C 102.707031 301.816406 113.632812 309.101562 120.003906 319.378906 C 120.386719 319.992188 121.046875 320.335938 121.722656 320.335938 C 122.085938 320.335938 122.453125 320.234375 122.785156 320.03125 C 123.734375 319.441406 124.027344 318.199219 123.4375 317.25 C 116.460938 305.992188 104.488281 298.011719 91.417969 295.898438 Z M 91.417969 295.898438 " style=" stroke:none;fill-rule:nonzero;fill:rgb(0%,0%,0%);fill-opacity:1;" />
<path d="M 242.710938 158.570312 C 241.683594 158.148438 240.5 158.640625 240.078125 159.671875 C 239.65625 160.703125 240.148438 161.882812 241.179688 162.308594 C 259.761719 169.929688 273.511719 187.710938 276.214844 207.613281 C 276.355469 208.625 277.21875 209.359375 278.214844 209.359375 C 278.304688 209.359375 278.398438 209.355469 278.488281 209.339844 C 279.59375 209.191406 280.371094 208.171875 280.21875 207.066406 C 277.324219 185.765625 262.601562 166.730469 242.710938 158.570312 Z M 242.710938 158.570312 " style=" stroke:none;fill-rule:nonzero;fill:rgb(0%,0%,0%);fill-opacity:1;" />
<path d="M 269.6875 151.773438 C 268.660156 151.335938 267.472656 151.8125 267.035156 152.839844 C 266.597656 153.867188 267.074219 155.050781 268.101562 155.488281 C 278.042969 159.726562 286.636719 167.128906 292.292969 176.335938 C 297.953125 185.542969 300.675781 196.550781 299.960938 207.335938 C 299.890625 208.445312 300.730469 209.410156 301.84375 209.484375 C 301.890625 209.484375 301.9375 209.488281 301.980469 209.488281 C 303.035156 209.488281 303.921875 208.667969 303.996094 207.601562 C 304.761719 195.988281 301.828125 184.136719 295.738281 174.21875 C 289.644531 164.304688 280.390625 156.335938 269.6875 151.773438 Z M 269.6875 151.773438 " style=" stroke:none;fill-rule:nonzero;fill:rgb(0%,0%,0%);fill-opacity:1;" />
<path d="M 216.808594 318.847656 C 211.378906 320.058594 207.132812 324.945312 205.996094 331.296875 C 205.144531 336.050781 206.449219 340.941406 209.484375 344.382812 C 212.109375 347.355469 215.921875 349.046875 219.714844 349.046875 C 220.632812 349.046875 221.550781 348.945312 222.453125 348.742188 C 226.007812 347.9375 229.203125 345.550781 231.222656 342.195312 C 234.335938 337.007812 234.070312 329.9375 230.574219 325 C 227.039062 320.011719 221.898438 317.710938 216.808594 318.847656 Z M 227.757812 340.113281 C 226.328125 342.496094 224.011719 344.25 221.558594 344.804688 C 218.410156 345.519531 214.777344 344.273438 212.511719 341.710938 C 210.320312 339.222656 209.34375 335.507812 209.972656 332.007812 C 210.824219 327.265625 213.851562 323.648438 217.691406 322.789062 C 221.1875 322.011719 224.679688 323.667969 227.28125 327.335938 C 229.878906 331.003906 230.074219 336.261719 227.757812 340.113281 Z M 227.757812 340.113281 " style=" stroke:none;fill-rule:nonzero;fill:rgb(0%,0%,0%);fill-opacity:1;" />
<path d="M 216.808594 358.449219 C 211.378906 359.660156 207.132812 364.546875 205.996094 370.894531 C 205.144531 375.652344 206.449219 380.542969 209.484375 383.984375 C 212.113281 386.957031 215.921875 388.648438 219.714844 388.648438 C 220.632812 388.648438 221.550781 388.546875 222.453125 388.34375 C 226.007812 387.535156 229.203125 385.152344 231.222656 381.796875 C 234.335938 376.609375 234.070312 369.539062 230.574219 364.601562 C 227.039062 359.613281 221.898438 357.308594 216.808594 358.449219 Z M 227.757812 379.714844 C 226.328125 382.09375 224.011719 383.847656 221.558594 384.402344 C 218.410156 385.117188 214.777344 383.875 212.511719 381.308594 C 210.320312 378.824219 209.34375 375.105469 209.972656 371.605469 C 210.824219 366.863281 213.851562 363.246094 217.691406 362.390625 C 221.1875 361.613281 224.679688 363.269531 227.28125 366.933594 C 229.878906 370.605469 230.074219 375.859375 227.757812 379.714844 Z M 227.757812 379.714844 " style=" stroke:none;fill-rule:nonzero;fill:rgb(0%,0%,0%);fill-opacity:1;" />
<path d="M 64.253906 406.488281 C 58.820312 407.699219 54.574219 412.585938 53.4375 418.9375 C 52.585938 423.691406 53.890625 428.585938 56.925781 432.023438 C 59.554688 435 63.363281 436.6875 67.15625 436.6875 C 68.074219 436.6875 68.992188 436.589844 69.894531 436.382812 C 73.449219 435.578125 76.648438 433.191406 78.660156 429.835938 C 81.777344 424.648438 81.515625 417.578125 78.015625 412.640625 C 74.484375 407.652344 69.339844 405.347656 64.253906 406.488281 Z M 75.199219 427.753906 C 73.769531 430.136719 71.453125 431.886719 69 432.445312 C 65.855469 433.15625 62.21875 431.914062 59.953125 429.347656 C 57.761719 426.863281 56.785156 423.144531 57.414062 419.648438 C 58.265625 414.90625 61.292969 411.285156 65.132812 410.429688 C 68.625 409.652344 72.121094 411.308594 74.71875 414.976562 C 77.320312 418.644531 77.519531 423.898438 75.199219 427.753906 Z M 75.199219 427.753906 " style=" stroke:none;fill-rule:nonzero;fill:rgb(0%,0%,0%);fill-opacity:1;" />
<path d="M 437.0625 403.335938 C 431.628906 404.546875 427.382812 409.433594 426.246094 415.78125 C 425.394531 420.539062 426.699219 425.433594 429.734375 428.867188 C 432.359375 431.84375 436.171875 433.535156 439.964844 433.535156 C 440.882812 433.535156 441.800781 433.433594 442.703125 433.230469 C 446.257812 432.425781 449.453125 430.039062 451.46875 426.683594 C 454.585938 421.496094 454.324219 414.425781 450.824219 409.488281 C 447.289062 404.5 442.144531 402.203125 437.0625 403.335938 Z M 448.007812 424.601562 C 446.578125 426.980469 444.257812 428.734375 441.808594 429.292969 C 438.660156 430.003906 435.027344 428.761719 432.765625 426.195312 C 430.570312 423.710938 429.59375 419.992188 430.222656 416.492188 C 431.074219 411.75 434.105469 408.132812 437.941406 407.277344 C 441.433594 406.492188 444.929688 408.152344 447.53125 411.820312 C 450.128906 415.492188 450.324219 420.746094 448.007812 424.601562 Z M 448.007812 424.601562 " style=" stroke:none;fill-rule:nonzero;fill:rgb(0%,0%,0%);fill-opacity:1;" />
<path d="M 222.984375 70.144531 C 222.757812 69.054688 221.695312 68.34375 220.597656 68.574219 L 206.746094 71.414062 C 205.652344 71.640625 204.949219 72.707031 205.171875 73.800781 C 205.367188 74.757812 206.210938 75.414062 207.148438 75.414062 C 207.28125 75.414062 207.417969 75.398438 207.554688 75.371094 L 221.410156 72.53125 C 222.503906 72.308594 223.207031 71.238281 222.984375 70.144531 Z M 222.984375 70.144531 " style=" stroke:none;fill-rule:nonzero;fill:rgb(0%,0%,0%);fill-opacity:1;" />
<path d="M 224.371094 106.234375 L 214.058594 109.042969 C 212.984375 109.335938 212.347656 110.445312 212.640625 111.519531 C 212.886719 112.417969 213.699219 113.011719 214.589844 113.011719 C 214.765625 113.011719 214.941406 112.988281 215.121094 112.9375 L 225.433594 110.132812 C 226.507812 109.839844 227.144531 108.730469 226.851562 107.652344 C 226.554688 106.578125 225.445312 105.941406 224.371094 106.234375 Z M 224.371094 106.234375 " style=" stroke:none;fill-rule:nonzero;fill:rgb(0%,0%,0%);fill-opacity:1;" />
<path d="M 267.910156 58.582031 L 267.914062 58.582031 C 269.027344 58.582031 269.933594 57.679688 269.933594 56.5625 C 269.933594 55.445312 269.03125 54.542969 267.914062 54.542969 L 254.0625 54.53125 L 254.058594 54.53125 C 252.945312 54.53125 252.039062 55.433594 252.039062 56.550781 C 252.039062 57.664062 252.941406 58.570312 254.058594 58.570312 Z M 267.910156 58.582031 " style=" stroke:none;fill-rule:nonzero;fill:rgb(0%,0%,0%);fill-opacity:1;" />
<path d="M 269.917969 100.515625 C 269.855469 99.402344 268.917969 98.550781 267.789062 98.613281 L 255 99.316406 C 253.890625 99.378906 253.035156 100.328125 253.097656 101.445312 C 253.15625 102.519531 254.046875 103.351562 255.113281 103.351562 C 255.148438 103.351562 255.1875 103.351562 255.226562 103.347656 L 268.011719 102.644531 C 269.125 102.585938 269.980469 101.632812 269.917969 100.515625 Z M 269.917969 100.515625 " style=" stroke:none;fill-rule:nonzero;fill:rgb(0%,0%,0%);fill-opacity:1;" />
<path d="M 302.894531 58.457031 C 307.277344 58.078125 311.832031 59.359375 315.375 61.976562 C 315.738281 62.242188 316.15625 62.371094 316.574219 62.371094 C 317.191406 62.371094 317.804688 62.089844 318.199219 61.550781 C 318.863281 60.652344 318.671875 59.390625 317.773438 58.726562 C 313.453125 55.535156 307.902344 53.972656 302.546875 54.433594 C 301.4375 54.527344 300.613281 55.507812 300.710938 56.617188 C 300.808594 57.730469 301.785156 58.5625 302.894531 58.457031 Z M 302.894531 58.457031 " style=" stroke:none;fill-rule:nonzero;fill:rgb(0%,0%,0%);fill-opacity:1;" />
<path d="M 311.472656 107.28125 C 311.847656 106.230469 311.296875 105.074219 310.246094 104.703125 L 296.800781 99.929688 C 295.753906 99.558594 294.597656 100.105469 294.222656 101.15625 C 293.851562 102.207031 294.398438 103.363281 295.453125 103.734375 L 308.894531 108.507812 C 309.117188 108.589844 309.34375 108.625 309.570312 108.625 C 310.402344 108.628906 311.179688 108.109375 311.472656 107.28125 Z M 311.472656 107.28125 " style=" stroke:none;fill-rule:nonzero;fill:rgb(0%,0%,0%);fill-opacity:1;" />
<path d="M 338.796875 121.96875 L 352.296875 125.519531 C 352.46875 125.566406 352.640625 125.589844 352.8125 125.589844 C 353.707031 125.589844 354.527344 124.988281 354.765625 124.082031 C 355.046875 123.003906 354.402344 121.898438 353.324219 121.613281 L 339.828125 118.0625 C 338.742188 117.777344 337.644531 118.425781 337.359375 119.503906 C 337.074219 120.582031 337.71875 121.6875 338.796875 121.96875 Z M 338.796875 121.96875 " style=" stroke:none;fill-rule:nonzero;fill:rgb(0%,0%,0%);fill-opacity:1;" />
<path d="M 390.15625 222.773438 L 398.664062 220.917969 C 399.753906 220.679688 400.445312 219.605469 400.207031 218.515625 C 399.96875 217.421875 398.890625 216.734375 397.804688 216.972656 L 389.296875 218.828125 C 388.207031 219.066406 387.515625 220.140625 387.753906 221.230469 C 387.960938 222.175781 388.796875 222.820312 389.726562 222.820312 C 389.867188 222.820312 390.011719 222.804688 390.15625 222.773438 Z M 390.15625 222.773438 " style=" stroke:none;fill-rule:nonzero;fill:rgb(0%,0%,0%);fill-opacity:1;" />
<path d="M 401.945312 248.699219 C 403.027344 248.421875 403.679688 247.324219 403.40625 246.242188 C 403.128906 245.160156 402.03125 244.507812 400.949219 244.78125 L 391.015625 247.3125 C 389.933594 247.585938 389.277344 248.6875 389.554688 249.765625 C 389.789062 250.679688 390.609375 251.289062 391.511719 251.289062 C 391.675781 251.289062 391.84375 251.269531 392.011719 251.226562 Z M 401.945312 248.699219 " style=" stroke:none;fill-rule:nonzero;fill:rgb(0%,0%,0%);fill-opacity:1;" />
<path d="M 426.457031 220.304688 L 432.140625 221.003906 C 432.226562 221.015625 432.308594 221.019531 432.390625 221.019531 C 433.398438 221.019531 434.269531 220.269531 434.394531 219.246094 C 434.53125 218.140625 433.742188 217.132812 432.636719 216.996094 L 426.953125 216.296875 C 425.855469 216.171875 424.835938 216.949219 424.699219 218.054688 C 424.5625 219.160156 425.351562 220.171875 426.457031 220.304688 Z M 426.457031 220.304688 " style=" stroke:none;fill-rule:nonzero;fill:rgb(0%,0%,0%);fill-opacity:1;" />
<path d="M 423.492188 250.273438 L 428.464844 250.273438 C 429.582031 250.273438 430.484375 249.371094 430.484375 248.253906 C 430.484375 247.140625 429.582031 246.234375 428.464844 246.234375 L 423.492188 246.234375 C 422.378906 246.234375 421.472656 247.140625 421.472656 248.253906 C 421.472656 249.371094 422.378906 250.273438 423.492188 250.273438 Z M 423.492188 250.273438 " style=" stroke:none;fill-rule:nonzero;fill:rgb(0%,0%,0%);fill-opacity:1;" />
<path d="M 459.414062 230.523438 L 467.585938 231.933594 C 467.699219 231.953125 467.816406 231.964844 467.929688 231.964844 C 468.898438 231.964844 469.75 231.269531 469.917969 230.285156 C 470.109375 229.1875 469.371094 228.140625 468.273438 227.953125 L 460.101562 226.542969 C 458.988281 226.355469 457.957031 227.089844 457.765625 228.1875 C 457.578125 229.285156 458.3125 230.332031 459.414062 230.523438 Z M 459.414062 230.523438 " style=" stroke:none;fill-rule:nonzero;fill:rgb(0%,0%,0%);fill-opacity:1;" />
<path d="M 452.066406 259.132812 L 459.171875 259.839844 C 459.238281 259.84375 459.308594 259.847656 459.371094 259.847656 C 460.398438 259.847656 461.277344 259.070312 461.378906 258.027344 C 461.492188 256.917969 460.679688 255.929688 459.570312 255.816406 L 452.464844 255.113281 C 451.332031 254.992188 450.363281 255.8125 450.253906 256.921875 C 450.148438 258.03125 450.957031 259.023438 452.066406 259.132812 Z M 452.066406 259.132812 " style=" stroke:none;fill-rule:nonzero;fill:rgb(0%,0%,0%);fill-opacity:1;" />
<path d="M 369.523438 259.855469 L 361.707031 262.695312 C 360.660156 263.078125 360.117188 264.238281 360.5 265.285156 C 360.796875 266.105469 361.574219 266.617188 362.398438 266.617188 C 362.628906 266.617188 362.859375 266.578125 363.085938 266.492188 L 370.902344 263.652344 C 371.949219 263.269531 372.492188 262.113281 372.109375 261.0625 C 371.730469 260.015625 370.566406 259.476562 369.523438 259.855469 Z M 369.523438 259.855469 " style=" stroke:none;fill-rule:nonzero;fill:rgb(0%,0%,0%);fill-opacity:1;" />
<path d="M 54.203125 227.667969 C 53.910156 226.589844 52.792969 225.957031 51.726562 226.242188 L 45.652344 227.882812 C 44.578125 228.175781 43.941406 229.28125 44.230469 230.359375 C 44.472656 231.261719 45.289062 231.855469 46.179688 231.855469 C 46.355469 231.855469 46.53125 231.828125 46.707031 231.78125 L 52.78125 230.144531 C 53.855469 229.851562 54.492188 228.742188 54.203125 227.667969 Z M 54.203125 227.667969 " style=" stroke:none;fill-rule:nonzero;fill:rgb(0%,0%,0%);fill-opacity:1;" />
<path d="M 60.144531 255.316406 L 51.59375 258.347656 C 50.542969 258.722656 49.992188 259.878906 50.367188 260.929688 C 50.660156 261.753906 51.4375 262.273438 52.269531 262.273438 C 52.492188 262.273438 52.722656 262.234375 52.945312 262.15625 L 61.492188 259.125 C 62.542969 258.75 63.09375 257.59375 62.722656 256.542969 C 62.351562 255.492188 61.191406 254.941406 60.144531 255.316406 Z M 60.144531 255.316406 " style=" stroke:none;fill-rule:nonzero;fill:rgb(0%,0%,0%);fill-opacity:1;" />
<path d="M 80.597656 222.917969 L 87.503906 222.171875 C 88.609375 222.050781 89.414062 221.054688 89.292969 219.945312 C 89.171875 218.835938 88.164062 218.035156 87.066406 218.152344 L 80.164062 218.902344 C 79.054688 219.023438 78.253906 220.019531 78.371094 221.128906 C 78.484375 222.164062 79.359375 222.929688 80.378906 222.929688 C 80.449219 222.929688 80.523438 222.925781 80.597656 222.917969 Z M 80.597656 222.917969 " style=" stroke:none;fill-rule:nonzero;fill:rgb(0%,0%,0%);fill-opacity:1;" />
<path d="M 89.03125 253.167969 C 88.925781 252.058594 87.953125 251.25 86.828125 251.347656 L 81.035156 251.898438 C 79.925781 252.003906 79.113281 252.992188 79.214844 254.101562 C 79.316406 255.144531 80.195312 255.929688 81.226562 255.929688 C 81.289062 255.929688 81.355469 255.925781 81.417969 255.921875 L 87.210938 255.367188 C 88.320312 255.265625 89.136719 254.277344 89.03125 253.167969 Z M 89.03125 253.167969 " style=" stroke:none;fill-rule:nonzero;fill:rgb(0%,0%,0%);fill-opacity:1;" />
<path d="M 114.703125 220.644531 L 121.316406 221.289062 C 121.378906 221.296875 121.445312 221.296875 121.511719 221.296875 C 122.539062 221.296875 123.417969 220.515625 123.519531 219.472656 C 123.628906 218.363281 122.816406 217.375 121.703125 217.269531 L 115.09375 216.628906 C 113.984375 216.515625 112.996094 217.332031 112.890625 218.441406 C 112.78125 219.550781 113.59375 220.539062 114.703125 220.644531 Z M 114.703125 220.644531 " style=" stroke:none;fill-rule:nonzero;fill:rgb(0%,0%,0%);fill-opacity:1;" />
<path d="M 108.804688 258.878906 L 116.523438 260 C 116.621094 260.011719 116.71875 260.019531 116.816406 260.019531 C 117.800781 260.019531 118.667969 259.296875 118.8125 258.289062 C 118.972656 257.183594 118.207031 256.160156 117.105469 256 L 109.382812 254.878906 C 108.277344 254.722656 107.253906 255.484375 107.09375 256.589844 C 106.933594 257.691406 107.699219 258.714844 108.804688 258.878906 Z M 108.804688 258.878906 " style=" stroke:none;fill-rule:nonzero;fill:rgb(0%,0%,0%);fill-opacity:1;" />
<path d="M 147.996094 260.738281 L 142.480469 259.910156 C 141.382812 259.742188 140.347656 260.503906 140.183594 261.609375 C 140.015625 262.710938 140.777344 263.738281 141.878906 263.90625 L 147.398438 264.730469 C 147.5 264.75 147.597656 264.753906 147.699219 264.753906 C 148.683594 264.753906 149.542969 264.035156 149.691406 263.035156 C 149.859375 261.929688 149.097656 260.902344 147.996094 260.738281 Z M 147.996094 260.738281 " style=" stroke:none;fill-rule:nonzero;fill:rgb(0%,0%,0%);fill-opacity:1;" />
</g>
</svg>