<?xml version="1.0" encoding="iso-8859-1"?>
<!-- Generator: Adobe Illustrator 16.0.0, SVG Export Plug-In . SVG Version: 6.00 Build 0)  -->
<!DOCTYPE svg PUBLIC "-//W3C//DTD SVG 1.1//EN" "http://www.w3.org/Graphics/SVG/1.1/DTD/svg11.dtd">
<svg version="1.1" id="Capa_1" xmlns="http://www.w3.org/2000/svg" xmlns:xlink="http://www.w3.org/1999/xlink" x="0px" y="0px"
	 width="30.73px" height="30.73px" viewBox="0 0 30.73 30.73" style="enable-background:new 0 0 30.73 30.73;" xml:space="preserve"
	>
<g>
	<g>
		<circle cx="23.448" cy="16.254" r="1.03"/>
		<circle cx="28.173" cy="16.254" r="1.03"/>
		<circle cx="18.215" cy="16.254" r="1.03"/>
		<circle cx="12.632" cy="16.254" r="1.03"/>
		<circle cx="7.245" cy="16.158" r="1.03"/>
		<circle cx="1.882" cy="16.158" r="1.03"/>
		<circle cx="4.505" cy="14.91" r="0.965"/>
		<circle cx="9.95" cy="14.787" r="0.965"/>
		<circle cx="15.445" cy="14.787" r="0.965"/>
		<circle cx="20.805" cy="14.787" r="0.965"/>
		<circle cx="25.928" cy="14.599" r="0.965"/>
		<circle cx="23.447" cy="13.474" r="0.903"/>
		<circle cx="28.509" cy="13.474" r="0.903"/>
		<circle cx="18.075" cy="13.369" r="0.903"/>
		<circle cx="12.632" cy="13.369" r="0.903"/>
		<circle cx="7.244" cy="13.203" r="0.903"/>
		<circle cx="2.009" cy="13.016" r="0.903"/>
		<circle cx="4.512" cy="11.761" r="0.809"/>
		<circle cx="2.113" cy="10.617" r="0.653"/>
		<circle cx="4.512" cy="9.44" r="0.524"/>
		<circle cx="2.289" cy="8.665" r="0.407"/>
		<circle cx="7.327" cy="8.509" r="0.407"/>
		<circle cx="12.671" cy="8.509" r="0.407"/>
		<circle cx="18.215" cy="8.509" r="0.407"/>
		<circle cx="23.484" cy="8.509" r="0.407"/>
		<circle cx="28.51" cy="8.665" r="0.407"/>
		<circle cx="10.027" cy="9.44" r="0.524"/>
		<circle cx="15.446" cy="9.44" r="0.524"/>
		<circle cx="20.881" cy="9.44" r="0.524"/>
		<circle cx="26.135" cy="9.441" r="0.524"/>
		<circle cx="4.927" cy="7.499" r="0.408"/>
		<circle cx="2.29" cy="6.969" r="0.316"/>
		<circle cx="7.367" cy="6.969" r="0.317"/>
		<circle cx="12.671" cy="6.97" r="0.317"/>
		<circle cx="18.215" cy="6.969" r="0.317"/>
		<circle cx="23.448" cy="6.969" r="0.317"/>
		<circle cx="28.548" cy="7.091" r="0.316"/>
		<circle cx="10.027" cy="7.695" r="0.408"/>
		<circle cx="15.482" cy="7.695" r="0.408"/>
		<circle cx="20.882" cy="7.695" r="0.408"/>
		<circle cx="25.927" cy="7.695" r="0.408"/>
		<circle cx="7.366" cy="10.46" r="0.653"/>
		<circle cx="12.67" cy="10.46" r="0.653"/>
		<circle cx="18.253" cy="10.46" r="0.653"/>
		<circle cx="23.484" cy="10.46" r="0.653"/>
		<circle cx="28.548" cy="10.46" r="0.653"/>
		<circle cx="10.026" cy="11.761" r="0.809"/>
		<circle cx="15.33" cy="11.761" r="0.809"/>
		<circle cx="20.881" cy="11.761" r="0.809"/>
		<circle cx="26.135" cy="11.761" r="0.809"/>
		<circle cx="23.448" cy="19.477" r="1.482"/>
		<polygon points="24.02,21.18 23.473,21.836 22.908,21.18 21.6,21.428 21.6,24.035 25.296,24.035 25.238,21.449 		"/>
		<circle cx="18.077" cy="19.477" r="1.482"/>
		<polygon points="18.648,21.18 18.104,21.836 17.538,21.18 16.229,21.449 16.229,24.035 19.925,24.035 19.852,21.449 		"/>
		<circle cx="20.688" cy="17.407" r="1.084"/>
		<path d="M21.771,18.655h-0.268h-0.4l-0.397,0.479l-0.413-0.479h-0.425H19.63c0.11,0.252,0.175,0.528,0.175,0.819
			c0,0.478-0.17,0.914-0.445,1.271h2.68l-0.001-0.066c-0.192-0.363-0.327-0.76-0.327-1.201c0-0.289,0.077-0.561,0.167-0.82
			L21.771,18.655L21.771,18.655z"/>
		<circle cx="12.632" cy="19.477" r="1.482"/>
		<polygon points="13.205,21.18 12.658,21.836 12.094,21.18 10.784,21.449 10.784,24.035 14.481,24.035 14.407,21.449 		"/>
		<circle cx="15.242" cy="17.407" r="1.084"/>
		<path d="M16.325,18.655h-0.265h-0.4l-0.399,0.479l-0.412-0.479h-0.426h-0.236c0.109,0.252,0.172,0.528,0.172,0.819
			c0,0.478-0.167,0.914-0.442,1.271h2.679l-0.002-0.066c-0.191-0.363-0.326-0.76-0.326-1.201c0-0.289,0.078-0.561,0.166-0.82
			L16.325,18.655L16.325,18.655z"/>
		<circle cx="28.882" cy="19.408" r="1.482"/>
		<polygon points="30.656,21.389 29.454,21.112 28.909,21.768 28.343,21.112 27.035,21.408 27.035,23.967 30.73,23.967 		"/>
		<circle cx="26.047" cy="17.34" r="1.084"/>
		<path d="M27.4,20.678l-0.002-0.067c-0.191-0.363-0.33-0.763-0.33-1.201c0-0.291,0.08-0.562,0.168-0.821h-0.104h-0.266h-0.4
			l-0.397,0.479l-0.414-0.479H25.23h-0.235c0.108,0.254,0.171,0.529,0.171,0.82c0,0.479-0.167,0.913-0.441,1.271H27.4V20.678z"/>
		<circle cx="7.328" cy="19.518" r="1.482"/>
		<polygon points="7.901,21.221 7.354,21.877 6.79,21.221 5.48,21.449 5.48,24.078 9.177,24.078 9.101,21.449 		"/>
		<circle cx="9.938" cy="17.449" r="1.084"/>
		<path d="M11.022,18.696h-0.266h-0.4l-0.398,0.479l-0.414-0.479H9.119H8.882c0.109,0.254,0.174,0.53,0.174,0.821
			c0,0.478-0.168,0.912-0.443,1.271h2.678l-0.001-0.067c-0.19-0.362-0.327-0.76-0.327-1.199c0-0.291,0.078-0.562,0.167-0.822
			L11.022,18.696L11.022,18.696z"/>
		<circle cx="1.883" cy="19.518" r="1.482"/>
		<polygon points="2.456,21.221 1.91,21.877 1.344,21.221 0,21.449 0.037,24.078 3.732,24.078 3.656,21.449 		"/>
		<circle cx="4.494" cy="17.449" r="1.084"/>
		<path d="M5.578,18.696H5.312h-0.4l-0.397,0.479L4.1,18.696H3.675H3.439c0.107,0.254,0.172,0.53,0.172,0.821
			c0,0.478-0.168,0.912-0.443,1.271h2.68l-0.002-0.069c-0.193-0.361-0.328-0.76-0.328-1.199c0-0.291,0.079-0.561,0.167-0.821
			L5.578,18.696L5.578,18.696z"/>
	</g>
</g>
<g>
</g>
<g>
</g>
<g>
</g>
<g>
</g>
<g>
</g>
<g>
</g>
<g>
</g>
<g>
</g>
<g>
</g>
<g>
</g>
<g>
</g>
<g>
</g>
<g>
</g>
<g>
</g>
<g>
</g>
</svg>
