<?xml version="1.0" standalone="no"?>
<!DOCTYPE svg PUBLIC "-//W3C//DTD SVG 20010904//EN"
 "http://www.w3.org/TR/2001/REC-SVG-20010904/DTD/svg10.dtd">
<svg version="1.0" xmlns="http://www.w3.org/2000/svg"
 width="1280.000000pt" height="714.000000pt" viewBox="0 0 1280.000000 714.000000"
 preserveAspectRatio="xMidYMid meet">
<g transform="translate(0.000000,714.000000) scale(0.100000,-0.100000)"
fill="#000000" stroke="none">
<path d="M10680 7115 c-216 -46 -382 -137 -521 -282 -118 -123 -177 -233 -222
-412 -30 -123 -30 -361 1 -476 30 -108 87 -225 156 -314 55 -73 64 -91 47 -91
-17 0 -81 30 -191 91 -96 52 -114 58 -128 47 -9 -7 -50 -41 -91 -75 -41 -35
-80 -63 -87 -63 -7 0 -29 34 -49 75 -52 108 -124 154 -226 142 -122 -15 -214
-100 -233 -218 l-6 -36 -158 -6 c-86 -4 -460 -4 -830 0 l-673 6 -22 27 c-45
53 -161 151 -243 206 -78 52 -85 60 -118 129 -22 45 -65 107 -113 162 -43 48
-105 123 -137 166 -199 263 -571 477 -1025 591 -80 20 -188 54 -240 75 -189
75 -354 109 -591 120 -150 8 -158 9 -237 45 -145 65 -254 88 -448 93 -137 4
-188 2 -265 -13 -103 -20 -149 -21 -371 -9 -201 11 -414 -18 -594 -81 -42 -14
-90 -17 -285 -18 -205 -1 -249 -4 -340 -24 -267 -58 -488 -162 -685 -321 l-80
-65 -65 3 c-91 3 -203 -34 -316 -105 -123 -77 -175 -123 -439 -389 -126 -127
-264 -257 -305 -287 -83 -61 -169 -148 -217 -219 -43 -62 -117 -212 -148 -297
-14 -39 -45 -105 -70 -149 -103 -180 -124 -328 -63 -450 20 -39 21 -47 9 -76
-36 -85 -61 -174 -61 -213 0 -141 110 -378 249 -537 32 -36 54 -73 61 -100 40
-164 85 -256 179 -365 186 -214 528 -380 922 -446 31 -5 39 -13 55 -49 10 -23
43 -71 73 -106 60 -71 65 -87 79 -247 7 -71 14 -101 35 -136 37 -63 130 -146
239 -214 51 -31 113 -74 138 -94 181 -150 446 -277 691 -332 97 -21 126 -23
419 -23 303 0 321 1 470 29 85 15 176 30 201 33 l47 5 32 -66 c53 -111 144
-236 237 -326 48 -48 99 -95 113 -105 36 -28 70 -80 202 -310 137 -239 282
-515 342 -653 77 -179 165 -277 301 -337 62 -27 80 -28 172 -7 132 29 134 98
13 438 -70 193 -78 228 -61 238 5 3 58 -6 117 -20 84 -20 158 -28 319 -37 316
-16 442 -14 565 12 263 55 384 92 519 158 217 107 384 278 425 437 8 31 27 71
41 88 67 79 94 190 71 288 -8 35 -13 67 -10 72 3 4 33 8 67 8 166 0 321 33
452 94 327 154 523 504 576 1031 13 131 7 509 -12 720 -29 337 -106 601 -217
749 -22 30 -52 90 -71 146 -72 208 -195 391 -308 457 -40 23 -60 53 -49 72 8
12 348 20 941 23 l500 3 7 -48 c14 -103 93 -186 195 -207 66 -14 114 -7 170
26 54 31 88 77 104 137 6 27 18 51 25 54 7 2 53 -30 103 -72 74 -63 94 -75
113 -70 13 4 77 36 144 71 112 59 155 75 154 57 -1 -5 -23 -37 -51 -73 -69
-90 -124 -206 -155 -325 -22 -85 -26 -122 -26 -240 0 -119 4 -155 26 -239 83
-319 335 -576 651 -668 70 -20 102 -23 250 -23 149 0 180 3 248 23 281 84 473
243 598 497 74 150 92 230 93 406 l0 146 166 -1 c144 -1 175 2 243 22 185 53
350 171 455 325 75 108 112 212 143 393 12 74 12 80 -16 234 -49 277 -251 500
-545 602 -93 32 -98 33 -268 33 -94 0 -172 0 -173 0 0 0 -3 59 -5 130 -12 312
-95 501 -308 702 -132 125 -267 191 -472 233 -124 25 -191 24 -324 -5z m342
-355 c187 -58 353 -231 403 -420 18 -69 19 -209 1 -276 -21 -80 -67 -174 -118
-242 -27 -35 -48 -65 -48 -68 0 -3 14 -17 32 -32 18 -15 75 -65 127 -111 53
-46 111 -95 129 -109 l34 -26 26 35 c174 229 487 252 688 51 180 -180 173
-447 -15 -625 -133 -124 -281 -164 -433 -117 -75 23 -129 59 -215 142 l-61 61
-156 -138 c-86 -76 -156 -140 -156 -142 0 -2 20 -28 45 -59 156 -191 183 -424
74 -643 -98 -197 -309 -331 -524 -331 -196 0 -396 111 -508 280 -96 145 -118
344 -57 516 65 186 228 328 433 380 l67 16 -1 65 c-2 97 21 106 81 31 85 -105
231 -103 325 4 59 67 80 133 79 248 0 109 -22 179 -76 244 -38 46 -118 86
-172 86 -52 0 -118 -33 -151 -75 -14 -19 -35 -40 -47 -46 -30 -16 -50 13 -42
58 12 65 1 79 -78 98 -204 51 -364 198 -429 396 -31 96 -34 264 -5 349 107
320 437 497 748 400z m-6527 -942 c145 -30 307 -156 372 -288 17 -36 35 -75
38 -87 9 -34 -15 -29 -51 8 -46 50 -107 73 -189 72 -131 -2 -213 -51 -267
-160 -28 -57 -32 -77 -32 -137 1 -87 18 -130 79 -195 63 -67 129 -95 225 -96
64 0 82 4 124 28 57 32 56 32 56 9 0 -21 -53 -86 -132 -162 -36 -35 -60 -68
-66 -91 -7 -28 5 -207 49 -730 32 -382 59 -720 59 -752 0 -51 -3 -61 -34 -95
l-34 -37 -321 -3 c-356 -3 -373 -1 -411 60 -19 29 -21 43 -15 108 3 41 32 378
64 748 44 504 57 682 49 709 -6 22 -40 67 -92 123 -92 98 -136 176 -162 286
-21 90 -14 225 16 311 46 133 149 254 268 316 142 73 250 88 407 55z"/>
</g>
</svg>
